<?xml version="1.0" encoding="utf-8"?>
<!-- Generator: Adobe Illustrator 16.0.0, SVG Export Plug-In . SVG Version: 6.00 Build 0)  -->
<!DOCTYPE svg PUBLIC "-//W3C//DTD SVG 1.1//EN" "http://www.w3.org/Graphics/SVG/1.1/DTD/svg11.dtd">
<svg version="1.1" id="Layer_1" xmlns="http://www.w3.org/2000/svg" xmlns:xlink="http://www.w3.org/1999/xlink" x="0px" y="0px"
	 width="72.75px" height="20.064px" viewBox="0 0 72.75 20.064" enable-background="new 0 0 72.75 20.064" xml:space="preserve">
<path fill="#030303" d="M15.5,17.308c0.193,0.245,0.334,0.493,0.419,0.771c0.044,0.143,0.083,0.286,0.077,0.438
	c-0.006,0.162-0.093,0.27-0.256,0.296c-0.454,0.079-0.895,0.027-1.323-0.14c-0.022-0.009-0.044-0.017-0.077-0.028
	c0.023,0.175,0.046,0.339,0.04,0.508c-0.006,0.216-0.037,0.429-0.103,0.636c-0.073,0.23-0.258,0.328-0.483,0.249
	c-0.618-0.22-1.073-0.627-1.383-1.201c-0.113-0.211-0.205-0.432-0.258-0.666c-0.018-0.08-0.046-0.082-0.113-0.056
	c-0.647,0.249-1.314,0.427-2.001,0.525C9,18.789,7.973,18.765,6.97,18.416c-0.285-0.1-0.56-0.226-0.82-0.379
	c-0.177-0.106-0.25-0.24-0.208-0.443c0.107-0.528,0.27-1.036,0.569-1.492c0.07-0.104,0.148-0.203,0.232-0.296
	c0.084-0.094,0.186-0.169,0.287-0.249c-0.508-0.458-0.931-0.98-1.265-1.577c-0.207-0.365-0.371-0.75-0.497-1.149
	c-0.011-0.036-0.011-0.074-0.069-0.077c-0.49-0.025-0.977-0.079-1.463-0.145c-0.716-0.097-1.422-0.239-2.108-0.47
	c-0.099-0.033-0.197-0.067-0.295-0.106c-0.278-0.111-0.375-0.441-0.137-0.668c0.42-0.403,0.824-0.822,1.218-1.252
	C3.2,9.257,3.947,8.37,4.652,7.448c0.545-0.715,1.072-1.44,1.545-2.206c0.549-0.888,1.036-1.806,1.37-2.799
	c0.162-0.48,0.264-0.975,0.262-1.485c0-0.167-0.012-0.334-0.048-0.499C7.743,0.272,7.852,0.096,8.04,0.03
	c0.19-0.066,0.378-0.019,0.448,0.133c0.117,0.256,0.284,0.479,0.451,0.7c0.499,0.658,1.106,1.201,1.778,1.676
	c0.96,0.676,2.008,1.185,3.099,1.609c1.269,0.496,2.566,0.898,3.889,1.222c0.704,0.171,1.414,0.315,2.133,0.41
	c0.261,0.033,0.338,0.241,0.312,0.434c-0.011,0.086-0.046,0.162-0.106,0.224c-0.841,0.892-1.739,1.72-2.71,2.468
	c-0.109,0.083-0.218,0.166-0.33,0.247c-0.033,0.024-0.041,0.046-0.028,0.087c0.161,0.515,0.253,1.04,0.274,1.578
	c0.026,0.67-0.072,1.319-0.267,1.957c-0.196,0.647-0.494,1.242-0.885,1.793c-0.025,0.036-0.032,0.052,0.012,0.083
	c0.626,0.446,1.001,1.052,1.132,1.808c0.024,0.145,0.027,0.293,0.005,0.438c-0.028,0.181-0.136,0.287-0.315,0.32
	c-0.42,0.077-0.844,0.1-1.27,0.094C15.617,17.307,15.569,17.308,15.5,17.308z"/>
<path fill="#CC9933" d="M18.978,6.408c-0.124,0.132-0.238,0.266-0.366,0.386c-0.245,0.229-0.494,0.454-0.746,0.675
	c-0.73,0.643-1.506,1.228-2.322,1.756c-0.886,0.573-1.812,1.07-2.784,1.482c-1.157,0.491-2.353,0.851-3.592,1.071
	c-0.566,0.101-1.136,0.171-1.71,0.213c-0.529,0.039-1.062,0.053-1.592,0.035c-0.975-0.028-1.942-0.136-2.897-0.34
	c-0.266-0.057-0.532-0.114-0.793-0.188c-0.009-0.035,0.018-0.045,0.033-0.062c1.124-1.152,2.163-2.376,3.141-3.654
	c0.615-0.804,1.199-1.628,1.713-2.5C7.564,4.433,8.017,3.557,8.31,2.609C8.412,2.28,8.488,1.943,8.54,1.588
	c0.089,0.098,0.17,0.188,0.251,0.276C9.407,2.53,10.12,3.076,10.89,3.547c1.104,0.676,2.288,1.184,3.502,1.622
	c1.064,0.385,2.145,0.709,3.247,0.965C18.082,6.238,18.527,6.329,18.978,6.408z"/>
<path fill="#E2C9A2" d="M11.348,16.36c-0.01,0.002-0.021,0.004-0.031,0.006c-0.06,0.015-0.121-0.007-0.18,0.011
	c-0.474,0.008-0.936-0.062-1.394-0.179c-0.351-0.091-0.682-0.222-1.008-0.374c-0.548-0.26-1.019-0.619-1.441-1.044
	c-0.124-0.125-0.233-0.267-0.353-0.396c-0.047-0.05-0.038-0.086,0.003-0.133c0.185-0.206,0.348-0.427,0.491-0.662
	c0.152-0.25,0.281-0.509,0.316-0.805c0.009-0.077,0.066-0.06,0.106-0.063c0.302-0.026,0.602-0.062,0.901-0.104
	c0.531-0.075,1.057-0.18,1.58-0.302c0.072-0.017,0.146-0.03,0.216-0.055c0.068-0.022,0.085,0,0.095,0.064
	c0.03,0.206,0.185,0.352,0.389,0.378c0.172,0.021,0.313-0.036,0.419-0.171c0.111-0.144,0.12-0.302,0.058-0.469
	c-0.007-0.021-0.046-0.043-0.014-0.066c0.025-0.02,0.051,0.01,0.071,0.023c0.061,0.043,0.121,0.089,0.178,0.139
	c0.102,0.086,0.208,0.084,0.293-0.009c0.075-0.084,0.064-0.188-0.029-0.276c-0.01-0.01-0.021-0.02-0.033-0.03
	c0.255-0.099,0.507-0.194,0.757-0.291c0.735-0.285,1.443-0.628,2.13-1.013c0.243-0.135,0.481-0.28,0.722-0.42
	c0.047,0,0.059,0.038,0.068,0.071c0.055,0.18,0.068,0.361,0.027,0.542c-0.025,0.111-0.094,0.193-0.195,0.246
	c-0.064,0.014-0.115-0.024-0.17-0.045c-0.301-0.111-0.603-0.13-0.901,0.005c-0.254,0.114-0.432,0.309-0.552,0.557
	c-0.056,0.116,0.029,0.247,0.161,0.261c0.029,0.002,0.061-0.009,0.089,0.006c0.062,0.103,0.078,0.219,0.111,0.331
	c0.081,0.272,0.16,0.545,0.238,0.818c0.01,0.037,0.027,0.073,0.01,0.113c-0.041,0.021-0.068-0.012-0.1-0.023
	c-0.073-0.028-0.135-0.012-0.192,0.037s-0.049,0.109-0.025,0.173c0.084,0.225,0.175,0.447,0.264,0.671
	c0.042,0.108,0.034,0.137-0.059,0.207c-0.215,0.16-0.46,0.245-0.723,0.278c-0.164,0.021-0.328,0.028-0.493,0.008
	c-0.134-0.019-0.215,0.095-0.168,0.222c0.008,0.022,0.021,0.042,0.027,0.066c0.011,0.065-0.022,0.122-0.05,0.176
	c-0.043,0.086-0.069,0.184-0.143,0.253c-0.232-0.001-0.438-0.081-0.636-0.198c-0.043-0.025-0.084-0.057-0.127-0.084
	c-0.059-0.034-0.121-0.039-0.181-0.01c-0.133,0.062-0.145,0.188-0.026,0.277c0.186,0.139,0.388,0.25,0.613,0.312
	c0.04,0.013,0.082,0.021,0.117,0.046c0.021,0.041-0.012,0.062-0.032,0.084c-0.236,0.284-0.514,0.52-0.842,0.691
	C11.588,16.269,11.477,16.335,11.348,16.36z"/>
<path fill="#E2C9A2" d="M11.348,16.36c0.145-0.077,0.297-0.14,0.439-0.225c0.305-0.183,0.567-0.412,0.787-0.691
	c0.028-0.029,0.062-0.014,0.093-0.008c0.38,0.062,0.741,0.007,1.078-0.184c0.036-0.021,0.073-0.04,0.104-0.071
	c0.06-0.061,0.07-0.146,0.024-0.214c-0.047-0.072-0.122-0.095-0.205-0.06c-0.081,0.033-0.153,0.083-0.235,0.112
	c-0.176,0.068-0.36,0.094-0.548,0.083c-0.027,0-0.055,0-0.074-0.025c0.066-0.135,0.146-0.263,0.182-0.41
	c0.133,0.045,0.27,0.071,0.41,0.062c0.43-0.021,0.838-0.11,1.187-0.383c0.066-0.052,0.126-0.11,0.182-0.174
	c0.065-0.073,0.081-0.15,0.041-0.248c-0.109-0.267-0.211-0.536-0.319-0.803c-0.012-0.029-0.032-0.06-0.022-0.094
	c-0.121-0.424-0.242-0.845-0.362-1.266c0.036-0.08,0.087-0.149,0.133-0.225c0.013-0.021,0.03-0.055,0.06-0.045
	c0.036,0.01,0.028,0.049,0.03,0.077c0.002,0.038,0.004,0.078,0.015,0.115c0.048,0.168,0.158,0.278,0.328,0.314
	c0.175,0.037,0.329-0.013,0.438-0.161c0.113-0.15,0.118-0.309,0.033-0.475c-0.004-0.009-0.01-0.016-0.014-0.023
	c-0.016-0.033-0.067-0.065-0.04-0.1c0.036-0.041,0.083,0,0.121,0.019c0.074,0.035,0.146,0.071,0.216,0.112
	c0.087,0.05,0.15,0.04,0.208-0.029c0.057-0.067,0.059-0.155,0.006-0.224c-0.024-0.031-0.056-0.055-0.089-0.075
	c-0.03-0.019-0.067-0.03-0.074-0.073c0.251-0.185,0.219-0.442,0.172-0.701c-0.01-0.054-0.011-0.114-0.061-0.154
	c0.236-0.152,0.472-0.306,0.714-0.46c0.074,0.244,0.118,0.493,0.15,0.744c0.102,0.8,0.006,1.578-0.25,2.34
	c-0.239,0.708-0.607,1.341-1.111,1.895c-0.82,0.901-1.834,1.453-3.031,1.668C11.827,16.343,11.589,16.381,11.348,16.36z"/>
<path fill="#C01F4A" d="M8.91,17.95c-0.667,0-1.259-0.086-1.829-0.31c-0.097-0.039-0.192-0.085-0.287-0.128
	c-0.03-0.013-0.049-0.028-0.038-0.065c0.107-0.395,0.235-0.776,0.512-1.091c0.008-0.009,0.016-0.018,0.024-0.026
	c0.129-0.145,0.258-0.206,0.468-0.118c0.33,0.138,0.646,0.303,0.972,0.444c0.532,0.23,1.089,0.364,1.665,0.428
	c0.281,0.03,0.563,0.039,0.844,0.043c0.221,0.003,0.443-0.018,0.665-0.029c0.053-0.002,0.088,0.006,0.087,0.068
	c-0.002,0.059,0.055,0.129-0.043,0.165c-0.411,0.15-0.83,0.277-1.256,0.38c-0.42,0.101-0.845,0.178-1.276,0.214
	C9.229,17.942,9.04,17.96,8.91,17.95z"/>
<path fill="#C01F4A" d="M14.169,16.41c0.186-0.135,0.361-0.249,0.522-0.384c0.291-0.245,0.583-0.489,0.873-0.735
	c0.033-0.029,0.054-0.042,0.099-0.012c0.409,0.285,0.688,0.661,0.801,1.153c0.015,0.067,0.01,0.085-0.064,0.093
	c-0.53,0.057-1.059,0.022-1.588-0.019c-0.161-0.013-0.322-0.028-0.483-0.039C14.271,16.466,14.233,16.434,14.169,16.41z"/>
<path fill="#C01F4A" d="M12.823,17.562c0.168,0.131,0.293,0.277,0.408,0.434c0.21,0.286,0.347,0.6,0.378,0.955
	c0.004,0.042,0.026,0.104-0.015,0.123c-0.035,0.019-0.068-0.035-0.099-0.062c-0.308-0.27-0.493-0.612-0.595-1.004
	C12.864,17.867,12.833,17.725,12.823,17.562z"/>
<path fill="#C01F4A" d="M13.699,17.092c0.594,0.147,1.082,0.438,1.399,1C14.452,17.984,14.034,17.594,13.699,17.092z"/>
<path fill="#757B93" d="M11.137,16.375c0.059-0.031,0.12-0.012,0.181-0.012C11.258,16.388,11.197,16.37,11.137,16.375z"/>
<path fill="#030303" d="M15.48,10.971c0.045,0.029,0.091,0.056,0.135,0.087c0.099,0.071,0.119,0.188,0.052,0.284
	c-0.066,0.096-0.154,0.109-0.265,0.041c-0.096-0.061-0.195-0.114-0.327-0.159c0.184,0.23,0.204,0.449,0.026,0.665
	c-0.106,0.129-0.321,0.177-0.488,0.118c-0.202-0.07-0.297-0.229-0.308-0.508c-0.094,0.068-0.103,0.198-0.197,0.262
	c-0.094,0.02-0.181,0.014-0.241-0.073c-0.059-0.083-0.042-0.165,0.003-0.251c0.271-0.53,0.871-0.756,1.436-0.536
	C15.364,10.924,15.422,10.948,15.48,10.971z"/>
<path fill="#030303" d="M14.471,13.029c0.103,0.213,0.177,0.438,0.269,0.655c0.032,0.078,0.057,0.159,0.094,0.233
	c0.053,0.112,0.021,0.201-0.056,0.286C14.565,14.436,14.3,14.58,14,14.663c-0.283,0.078-0.571,0.102-0.863,0.073
	c-0.059-0.006-0.1-0.036-0.143-0.07c-0.007-0.013-0.016-0.025-0.022-0.039c-0.037-0.075-0.036-0.152,0.009-0.222
	c0.041-0.063,0.112-0.063,0.179-0.059c0.201,0.021,0.4,0.013,0.599-0.025c0.229-0.046,0.44-0.133,0.625-0.28
	c0.053-0.041,0.058-0.078,0.034-0.136c-0.089-0.216-0.173-0.434-0.259-0.65c-0.054-0.135-0.048-0.202,0.02-0.253
	C14.263,12.937,14.368,12.948,14.471,13.029z"/>
<path fill="#030303" d="M12.811,15.078c0.29,0.027,0.561-0.024,0.811-0.178c0.113-0.067,0.215-0.045,0.274,0.052
	c0.062,0.103,0.034,0.218-0.077,0.286c-0.232,0.141-0.482,0.222-0.755,0.239c-0.167,0.014-0.328-0.012-0.49-0.034
	c-0.244-0.065-0.474-0.159-0.68-0.309c-0.015-0.011-0.03-0.02-0.044-0.031c-0.115-0.084-0.142-0.167-0.081-0.255
	c0.072-0.104,0.209-0.128,0.317-0.049C12.302,14.961,12.544,15.051,12.811,15.078z"/>
<g>
	<path fill="#CC9933" d="M22.957,15.095V9.804h-0.913V8.232h0.913V7.966c0-0.828,0.252-1.741,0.856-2.302
		c0.547-0.505,1.277-0.688,1.909-0.688c0.464,0,0.828,0.07,1.124,0.141l-0.084,1.643c-0.183-0.056-0.408-0.098-0.688-0.098
		c-0.702,0-0.997,0.547-0.997,1.22v0.352h1.375v1.572H25.09v5.292h-2.133V15.095z"/>
	<path fill="#CC9933" d="M28.543,7.333c-0.716,0-1.178-0.505-1.178-1.138c0-0.646,0.478-1.138,1.207-1.138s1.179,0.491,1.193,1.138
		c0,0.632-0.464,1.138-1.207,1.138H28.543z M27.49,15.095V8.232h2.134v6.864L27.49,15.095L27.49,15.095z"/>
	<path fill="#CC9933" d="M31.335,5.129h2.134v9.966h-2.134V5.129z"/>
	<path fill="#CC9933" d="M36.233,7.333c-0.715,0-1.179-0.505-1.179-1.138c0-0.646,0.477-1.138,1.207-1.138s1.178,0.491,1.193,1.138
		c0,0.632-0.463,1.138-1.207,1.138H36.233z M35.181,15.095V8.232h2.133v6.864L35.181,15.095L35.181,15.095z"/>
	<path fill="#CC9933" d="M39.025,10.533c0-0.898-0.027-1.657-0.055-2.303h1.853l0.099,0.954h0.029
		c0.504-0.716,1.292-1.108,2.287-1.108c1.504,0,2.851,1.306,2.851,3.495c0,2.498-1.585,3.679-3.116,3.679
		c-0.828,0-1.476-0.337-1.783-0.786h-0.028v3.41h-2.134L39.025,10.533L39.025,10.533z M41.161,12.148
		c0,0.168,0.014,0.309,0.041,0.45c0.141,0.576,0.632,1.011,1.25,1.011c0.926,0,1.473-0.771,1.473-1.937
		c0-1.095-0.491-1.924-1.444-1.924c-0.604,0-1.138,0.448-1.277,1.081c-0.028,0.11-0.041,0.253-0.041,0.379L41.161,12.148
		L41.161,12.148z"/>
	<path fill="#CC9933" d="M48.473,7.333c-0.717,0-1.18-0.505-1.18-1.138c0-0.646,0.479-1.138,1.207-1.138
		c0.73,0,1.18,0.491,1.193,1.138c0,0.632-0.463,1.138-1.207,1.138H48.473z M47.419,15.095V8.232h2.134v6.864L47.419,15.095
		L47.419,15.095z"/>
	<path fill="#CC9933" d="M50.718,13.86l2.161-2.693c0.395-0.45,0.702-0.8,1.094-1.208V9.93h-3.018V8.232h5.615v1.291l-2.063,2.597
		c-0.381,0.436-0.729,0.872-1.123,1.25v0.027h3.3v1.699h-5.966V13.86L50.718,13.86z"/>
	<path fill="#CC9933" d="M59.393,12.331c0.071,0.896,0.941,1.318,1.938,1.318c0.729,0,1.319-0.098,1.896-0.295l0.281,1.447
		c-0.701,0.294-1.559,0.436-2.484,0.436c-2.33,0-3.664-1.348-3.664-3.51c0-1.74,1.095-3.664,3.467-3.664
		c2.219,0,3.061,1.728,3.061,3.426c0,0.364-0.043,0.688-0.07,0.855L59.393,12.331z M61.906,10.871c0-0.505-0.225-1.391-1.193-1.391
		c-0.912,0-1.277,0.829-1.333,1.391H61.906z"/>
	<path fill="#CC9933" d="M65.161,10.421c0-0.856-0.027-1.572-0.056-2.189h1.854l0.1,0.954H67.1c0.28-0.448,0.969-1.107,2.121-1.107
		c1.402,0,2.456,0.94,2.456,2.962v4.057h-2.134v-3.804c0-0.884-0.309-1.488-1.081-1.488c-0.59,0-0.94,0.407-1.095,0.8
		c-0.057,0.141-0.07,0.336-0.07,0.533v3.958h-2.135L65.161,10.421L65.161,10.421z"/>
</g>
</svg>
