<?xml version="1.0" encoding="utf-8"?>
<!-- Generator: Adobe Illustrator 16.0.0, SVG Export Plug-In . SVG Version: 6.00 Build 0)  -->
<!DOCTYPE svg PUBLIC "-//W3C//DTD SVG 1.1//EN" "http://www.w3.org/Graphics/SVG/1.1/DTD/svg11.dtd">
<svg version="1.1" id="Layer_1" xmlns="http://www.w3.org/2000/svg" xmlns:xlink="http://www.w3.org/1999/xlink" x="0px" y="0px"
	 width="93.75px" height="28.531px" viewBox="-18.5 -4 93.75 28.531" enable-background="new -18.5 -4 93.75 28.531"
	 xml:space="preserve">
<path fill="#030303" d="M4.137,19.071c0.235,0.299,0.407,0.602,0.511,0.938c0.053,0.176,0.101,0.351,0.094,0.536
	c-0.008,0.197-0.114,0.326-0.312,0.361c-0.554,0.095-1.089,0.032-1.61-0.171c-0.026-0.011-0.054-0.021-0.094-0.034
	c0.027,0.211,0.056,0.412,0.049,0.617c-0.008,0.264-0.046,0.522-0.125,0.773c-0.089,0.281-0.315,0.399-0.588,0.303
	c-0.752-0.267-1.306-0.763-1.683-1.463c-0.139-0.255-0.25-0.525-0.314-0.81c-0.022-0.098-0.057-0.101-0.138-0.069
	c-0.788,0.305-1.6,0.521-2.436,0.641c-1.264,0.182-2.515,0.151-3.736-0.271c-0.348-0.121-0.68-0.274-0.998-0.461
	c-0.217-0.131-0.306-0.293-0.255-0.541c0.13-0.644,0.329-1.262,0.693-1.815c0.085-0.128,0.18-0.247,0.282-0.361
	c0.103-0.113,0.227-0.205,0.35-0.302c-0.618-0.558-1.134-1.195-1.54-1.919c-0.251-0.445-0.452-0.913-0.604-1.401
	c-0.014-0.043-0.014-0.09-0.085-0.093c-0.596-0.031-1.189-0.096-1.78-0.176c-0.872-0.119-1.732-0.292-2.567-0.572
	c-0.121-0.04-0.24-0.082-0.359-0.129c-0.339-0.136-0.457-0.538-0.167-0.814c0.512-0.491,1.003-1.001,1.483-1.524
	c0.956-1.041,1.866-2.12,2.725-3.243C-8.402,6.2-7.761,5.315-7.185,4.384c0.668-1.08,1.26-2.197,1.667-3.405
	C-5.32,0.394-5.197-0.208-5.198-0.83c0-0.203-0.015-0.407-0.058-0.608c-0.049-0.229,0.084-0.443,0.312-0.523
	C-4.712-2.042-4.483-1.983-4.398-1.8c0.143,0.311,0.345,0.582,0.549,0.852c0.607,0.801,1.346,1.463,2.165,2.041
	c1.169,0.823,2.445,1.442,3.771,1.959c1.544,0.604,3.124,1.093,4.734,1.487c0.856,0.209,1.721,0.385,2.597,0.5
	C9.735,5.08,9.83,5.333,9.798,5.567C9.784,5.671,9.74,5.762,9.668,5.839C8.646,6.924,7.552,7.932,6.37,8.843
	C6.237,8.944,6.104,9.044,5.968,9.144c-0.04,0.029-0.05,0.055-0.034,0.105c0.196,0.626,0.309,1.266,0.334,1.922
	c0.032,0.813-0.089,1.605-0.324,2.381c-0.239,0.788-0.603,1.513-1.078,2.184c-0.03,0.043-0.038,0.062,0.016,0.101
	c0.762,0.543,1.218,1.279,1.378,2.198c0.03,0.176,0.033,0.357,0.007,0.535c-0.034,0.22-0.166,0.349-0.384,0.389
	c-0.511,0.095-1.027,0.121-1.545,0.114C4.278,19.071,4.221,19.071,4.137,19.071z"/>
<path fill="#CC9933" d="M8.371,5.803C8.22,5.964,8.08,6.127,7.924,6.273C7.626,6.552,7.323,6.826,7.016,7.095
	C6.127,7.877,5.183,8.589,4.189,9.233c-1.078,0.698-2.206,1.302-3.388,1.805c-1.408,0.597-2.864,1.036-4.372,1.303
	c-0.69,0.123-1.384,0.208-2.083,0.26c-0.645,0.048-1.292,0.063-1.938,0.043c-1.187-0.036-2.364-0.166-3.526-0.414
	c-0.323-0.069-0.647-0.14-0.965-0.228c-0.011-0.042,0.021-0.055,0.04-0.074c1.368-1.404,2.633-2.894,3.824-4.449
	c0.748-0.978,1.46-1.983,2.085-3.044c0.611-1.037,1.163-2.102,1.52-3.257c0.124-0.402,0.217-0.811,0.28-1.243
	c0.109,0.119,0.207,0.228,0.306,0.336c0.75,0.811,1.617,1.476,2.555,2.048c1.344,0.823,2.785,1.441,4.263,1.975
	C4.084,4.763,5.4,5.158,6.741,5.469C7.28,5.596,7.823,5.708,8.371,5.803z"/>
<path fill="#E2C9A2" d="M-0.917,17.917c-0.013,0.002-0.025,0.004-0.038,0.006c-0.072,0.019-0.146-0.007-0.22,0.015
	c-0.576,0.009-1.139-0.076-1.696-0.219c-0.427-0.108-0.83-0.27-1.228-0.456c-0.667-0.314-1.24-0.752-1.754-1.271
	c-0.151-0.152-0.284-0.323-0.43-0.481c-0.057-0.062-0.046-0.104,0.003-0.162c0.225-0.251,0.424-0.52,0.599-0.806
	c0.184-0.305,0.342-0.621,0.383-0.98c0.013-0.094,0.082-0.072,0.131-0.077c0.367-0.032,0.732-0.076,1.096-0.129
	c0.646-0.091,1.286-0.217,1.922-0.367c0.088-0.021,0.178-0.037,0.263-0.067c0.083-0.028,0.104,0,0.116,0.078
	c0.037,0.25,0.224,0.428,0.474,0.461c0.209,0.027,0.381-0.044,0.51-0.208c0.135-0.174,0.146-0.367,0.071-0.57
	c-0.01-0.026-0.057-0.052-0.018-0.082c0.032-0.024,0.062,0.012,0.087,0.029c0.074,0.053,0.146,0.109,0.216,0.167
	c0.125,0.106,0.254,0.103,0.357-0.01c0.092-0.102,0.079-0.229-0.036-0.337c-0.012-0.013-0.025-0.023-0.041-0.037
	c0.311-0.12,0.618-0.236,0.922-0.354c0.896-0.347,1.757-0.765,2.594-1.234c0.295-0.165,0.585-0.341,0.878-0.511
	c0.058,0,0.071,0.045,0.083,0.087c0.066,0.217,0.082,0.439,0.033,0.66c-0.03,0.136-0.114,0.235-0.237,0.3
	c-0.077,0.016-0.14-0.031-0.207-0.055c-0.367-0.136-0.734-0.159-1.097,0.006c-0.309,0.138-0.525,0.375-0.672,0.677
	c-0.068,0.142,0.036,0.301,0.197,0.317c0.036,0.002,0.074-0.011,0.108,0.008c0.076,0.123,0.095,0.267,0.136,0.402
	c0.099,0.332,0.194,0.664,0.29,0.996c0.013,0.044,0.033,0.09,0.013,0.138c-0.049,0.026-0.083-0.015-0.121-0.029
	c-0.089-0.034-0.165-0.015-0.234,0.045c-0.069,0.061-0.06,0.134-0.031,0.211c0.103,0.274,0.214,0.544,0.322,0.816
	c0.051,0.131,0.041,0.167-0.072,0.251c-0.261,0.194-0.56,0.297-0.88,0.339c-0.199,0.024-0.398,0.034-0.6,0.009
	c-0.163-0.021-0.261,0.115-0.205,0.27c0.009,0.028,0.025,0.053,0.033,0.082c0.014,0.08-0.027,0.147-0.061,0.213
	c-0.052,0.105-0.084,0.224-0.173,0.309c-0.282-0.003-0.534-0.099-0.774-0.24c-0.053-0.031-0.103-0.07-0.155-0.102
	c-0.071-0.043-0.146-0.048-0.221-0.013c-0.161,0.076-0.175,0.229-0.031,0.337c0.227,0.17,0.473,0.304,0.747,0.383
	c0.049,0.014,0.1,0.024,0.142,0.055c0.025,0.049-0.015,0.074-0.039,0.104c-0.288,0.345-0.626,0.631-1.025,0.841
	C-0.625,17.806-0.76,17.887-0.917,17.917z"/>
<path fill="#E2C9A2" d="M-0.917,17.917c0.176-0.096,0.361-0.17,0.535-0.274c0.372-0.222,0.69-0.499,0.958-0.839
	c0.035-0.038,0.076-0.019,0.114-0.011C1.151,16.868,1.589,16.802,2,16.57c0.044-0.026,0.09-0.049,0.126-0.087
	c0.074-0.076,0.085-0.178,0.03-0.261c-0.057-0.087-0.148-0.117-0.25-0.074C1.809,16.19,1.72,16.25,1.621,16.287
	c-0.216,0.082-0.438,0.113-0.667,0.102c-0.033-0.002-0.066-0.002-0.09-0.032c0.082-0.164,0.178-0.32,0.223-0.499
	c0.162,0.055,0.328,0.087,0.499,0.076c0.523-0.025,1.02-0.135,1.444-0.465c0.081-0.063,0.153-0.136,0.222-0.212
	c0.079-0.09,0.098-0.185,0.049-0.302c-0.134-0.325-0.257-0.651-0.389-0.978c-0.015-0.036-0.04-0.071-0.027-0.113
	c-0.147-0.515-0.294-1.028-0.441-1.541c0.043-0.098,0.106-0.182,0.161-0.273c0.016-0.026,0.037-0.066,0.074-0.055
	c0.043,0.012,0.034,0.059,0.036,0.093c0.002,0.048,0.005,0.096,0.018,0.141c0.059,0.205,0.192,0.339,0.398,0.382
	c0.213,0.045,0.4-0.016,0.535-0.197c0.137-0.182,0.143-0.376,0.04-0.577C3.7,11.828,3.692,11.82,3.688,11.81
	c-0.02-0.041-0.083-0.081-0.049-0.122c0.043-0.05,0.102,0,0.147,0.022c0.089,0.043,0.178,0.086,0.263,0.137
	c0.105,0.062,0.182,0.049,0.252-0.035c0.068-0.083,0.071-0.189,0.007-0.272c-0.03-0.038-0.068-0.066-0.109-0.091
	c-0.036-0.022-0.082-0.037-0.09-0.089c0.306-0.226,0.267-0.54,0.209-0.854c-0.012-0.065-0.014-0.14-0.075-0.187
	c0.288-0.186,0.576-0.372,0.87-0.562c0.09,0.299,0.144,0.601,0.183,0.907c0.124,0.972,0.007,1.921-0.305,2.848
	c-0.292,0.861-0.74,1.633-1.353,2.307c-1,1.096-2.233,1.769-3.69,2.03C-0.334,17.897-0.623,17.943-0.917,17.917z"/>
<path fill="#C01F4A" d="M-3.885,19.853c-0.811,0-1.533-0.105-2.226-0.376c-0.119-0.047-0.234-0.103-0.35-0.155
	c-0.037-0.016-0.06-0.034-0.047-0.081c0.131-0.479,0.287-0.944,0.623-1.327c0.01-0.011,0.021-0.021,0.031-0.033
	c0.157-0.174,0.314-0.25,0.57-0.143c0.4,0.167,0.785,0.369,1.182,0.541c0.648,0.282,1.326,0.445,2.028,0.521
	c0.342,0.036,0.685,0.049,1.027,0.053c0.27,0.004,0.54-0.021,0.81-0.036c0.064-0.002,0.107,0.009,0.105,0.083
	c-0.002,0.072,0.067,0.157-0.052,0.201c-0.5,0.184-1.01,0.338-1.529,0.463c-0.512,0.122-1.029,0.215-1.553,0.261
	C-3.496,19.844-3.727,19.864-3.885,19.853z"/>
<path fill="#C01F4A" d="M2.517,17.979c0.225-0.163,0.439-0.303,0.636-0.467c0.354-0.299,0.709-0.597,1.062-0.896
	c0.041-0.034,0.065-0.051,0.12-0.015c0.498,0.349,0.837,0.807,0.975,1.406c0.019,0.081,0.013,0.103-0.078,0.112
	c-0.646,0.068-1.29,0.027-1.934-0.022c-0.197-0.016-0.392-0.034-0.588-0.047C2.641,18.048,2.595,18.009,2.517,17.979z"/>
<path fill="#C01F4A" d="M0.879,19.382c0.205,0.158,0.357,0.337,0.496,0.526c0.255,0.349,0.422,0.729,0.46,1.163
	c0.005,0.05,0.032,0.126-0.018,0.149c-0.042,0.021-0.083-0.043-0.12-0.076c-0.375-0.327-0.601-0.744-0.725-1.222
	C0.928,19.751,0.89,19.579,0.879,19.382z"/>
<path fill="#C01F4A" d="M1.945,18.81c0.723,0.178,1.316,0.53,1.703,1.216C2.861,19.894,2.353,19.421,1.945,18.81z"/>
<path fill="#757B93" d="M-1.174,17.937c0.071-0.04,0.146-0.016,0.22-0.016C-1.026,17.951-1.101,17.93-1.174,17.937z"/>
<path fill="#030303" d="M4.112,11.358c0.055,0.036,0.111,0.069,0.165,0.106c0.12,0.085,0.145,0.227,0.063,0.345
	c-0.081,0.117-0.188,0.133-0.323,0.049C3.9,11.785,3.78,11.72,3.619,11.665c0.225,0.281,0.249,0.547,0.032,0.81
	c-0.129,0.156-0.39,0.216-0.594,0.143C2.812,12.534,2.695,12.34,2.683,12c-0.114,0.084-0.125,0.24-0.24,0.318
	c-0.115,0.024-0.221,0.018-0.294-0.088c-0.072-0.1-0.05-0.201,0.004-0.306c0.331-0.646,1.06-0.921,1.749-0.652
	C3.972,11.3,4.042,11.329,4.112,11.358z"/>
<path fill="#030303" d="M2.885,13.862c0.125,0.259,0.215,0.533,0.327,0.798c0.04,0.095,0.07,0.193,0.114,0.284
	c0.064,0.136,0.026,0.245-0.069,0.348c-0.258,0.283-0.581,0.459-0.947,0.559c-0.344,0.096-0.695,0.125-1.05,0.09
	c-0.071-0.007-0.122-0.043-0.173-0.085c-0.009-0.015-0.02-0.03-0.028-0.047c-0.045-0.091-0.045-0.186,0.011-0.271
	c0.05-0.076,0.137-0.076,0.217-0.069c0.245,0.023,0.487,0.015,0.729-0.032c0.28-0.054,0.536-0.161,0.761-0.34
	c0.064-0.05,0.071-0.095,0.042-0.167c-0.109-0.261-0.211-0.526-0.315-0.791c-0.066-0.164-0.058-0.245,0.024-0.308
	C2.631,13.751,2.759,13.763,2.885,13.862z"/>
<path fill="#030303" d="M0.863,16.356c0.354,0.034,0.684-0.029,0.988-0.215c0.137-0.083,0.261-0.055,0.333,0.062
	c0.075,0.124,0.041,0.266-0.094,0.348c-0.282,0.172-0.586,0.271-0.918,0.294c-0.204,0.014-0.399-0.017-0.598-0.042
	c-0.296-0.081-0.577-0.195-0.827-0.376c-0.017-0.014-0.037-0.024-0.054-0.037c-0.14-0.104-0.172-0.205-0.099-0.312
	c0.087-0.126,0.255-0.156,0.386-0.061C0.244,16.215,0.539,16.325,0.863,16.356z"/>
<g>
	<path fill="#FFFFFF" d="M11.997,18.81v-6.442h-1.111v-1.914h1.111V10.13c0-1.009,0.308-2.119,1.042-2.803
		c0.667-0.615,1.555-0.837,2.324-0.837c0.564,0,1.008,0.085,1.367,0.17l-0.102,2c-0.223-0.069-0.496-0.119-0.836-0.119
		c-0.854,0-1.214,0.665-1.214,1.485v0.428h1.674v1.914h-1.658v6.442H11.997L11.997,18.81z"/>
	<path fill="#FFFFFF" d="M18.797,9.36c-0.872,0-1.435-0.615-1.435-1.384c0-0.787,0.582-1.385,1.47-1.385
		c0.887,0,1.434,0.598,1.452,1.385c0,0.768-0.565,1.384-1.469,1.384H18.797z M17.514,18.81v-8.356h2.599v8.355L17.514,18.81
		L17.514,18.81z"/>
	<path fill="#FFFFFF" d="M22.195,6.677h2.598v12.132h-2.598V6.677z"/>
	<path fill="#FFFFFF" d="M28.158,9.36c-0.872,0-1.436-0.615-1.436-1.384c0-0.787,0.582-1.385,1.47-1.385s1.435,0.598,1.453,1.385
		c0,0.768-0.565,1.384-1.47,1.384H28.158z M26.877,18.81v-8.356h2.597v8.355L26.877,18.81L26.877,18.81z"/>
	<path fill="#FFFFFF" d="M31.558,13.257c0-1.094-0.034-2.017-0.068-2.802h2.256l0.121,1.161h0.036
		c0.614-0.871,1.572-1.349,2.785-1.349c1.829,0,3.469,1.588,3.469,4.254c0,3.042-1.93,4.477-3.794,4.477
		c-1.008,0-1.795-0.41-2.169-0.957h-0.035v4.152h-2.598L31.558,13.257L31.558,13.257z M34.155,15.221
		c0,0.205,0.017,0.375,0.051,0.547c0.171,0.701,0.769,1.23,1.521,1.23c1.128,0,1.794-0.94,1.794-2.357
		c0-1.333-0.598-2.342-1.76-2.342c-0.735,0-1.384,0.547-1.555,1.315c-0.034,0.136-0.051,0.309-0.051,0.462V15.221L34.155,15.221z"/>
	<path fill="#FFFFFF" d="M43.056,9.36c-0.872,0-1.436-0.615-1.436-1.384c0-0.787,0.582-1.385,1.47-1.385
		c0.89,0,1.435,0.598,1.452,1.385c0,0.768-0.564,1.384-1.47,1.384H43.056z M41.774,18.81v-8.356h2.599v8.355L41.774,18.81
		L41.774,18.81z"/>
	<path fill="#FFFFFF" d="M45.79,17.306l2.63-3.28c0.479-0.548,0.854-0.974,1.332-1.471v-0.034h-3.674v-2.067h6.835v1.572
		l-2.513,3.16c-0.463,0.53-0.886,1.06-1.365,1.521v0.034h4.016v2.068h-7.263L45.79,17.306L45.79,17.306z"/>
	<path fill="#FFFFFF" d="M56.35,15.443c0.087,1.094,1.146,1.606,2.359,1.606c0.888,0,1.606-0.119,2.306-0.358l0.344,1.76
		c-0.854,0.359-1.898,0.53-3.025,0.53c-2.836,0-4.459-1.64-4.459-4.272c0-2.119,1.332-4.459,4.22-4.459
		c2.7,0,3.726,2.101,3.726,4.168c0,0.445-0.052,0.838-0.086,1.043L56.35,15.443z M59.409,13.667c0-0.615-0.273-1.691-1.452-1.691
		c-1.11,0-1.556,1.009-1.624,1.691H59.409z"/>
	<path fill="#FFFFFF" d="M63.371,13.119c0-1.043-0.032-1.914-0.067-2.665h2.256l0.12,1.161h0.05c0.343-0.546,1.181-1.35,2.582-1.35
		c1.708,0,2.991,1.146,2.991,3.605v4.939h-2.599v-4.631c0-1.076-0.375-1.811-1.315-1.811c-0.719,0-1.146,0.496-1.333,0.974
		c-0.068,0.17-0.085,0.41-0.085,0.649v4.818h-2.6V13.119L63.371,13.119z"/>
</g>
</svg>
