<?xml version="1.0" encoding="utf-8"?>
<!-- Generator: Adobe Illustrator 16.0.0, SVG Export Plug-In . SVG Version: 6.00 Build 0)  -->
<!DOCTYPE svg PUBLIC "-//W3C//DTD SVG 1.1//EN" "http://www.w3.org/Graphics/SVG/1.1/DTD/svg11.dtd">
<svg version="1.1" id="Layer_1" xmlns="http://www.w3.org/2000/svg" xmlns:xlink="http://www.w3.org/1999/xlink" x="0px" y="0px"
	 width="252px" height="91px" viewBox="0 -4.5 252 91" enable-background="new 0 -4.5 252 91" xml:space="preserve">
<path fill="#030303" d="M55.33,63.267c0.674,0.853,1.163,1.718,1.462,2.681c0.154,0.499,0.291,0.999,0.268,1.532
	c-0.022,0.566-0.325,0.934-0.891,1.031c-1.581,0.271-3.114,0.094-4.605-0.49c-0.076-0.029-0.154-0.057-0.268-0.098
	c0.077,0.605,0.158,1.182,0.14,1.766c-0.023,0.754-0.13,1.494-0.358,2.213c-0.254,0.804-0.9,1.144-1.682,0.865
	c-2.152-0.76-3.736-2.18-4.814-4.182c-0.396-0.734-0.713-1.504-0.9-2.318c-0.064-0.277-0.161-0.285-0.395-0.193
	c-2.252,0.871-4.575,1.486-6.965,1.83c-3.616,0.518-7.193,0.434-10.686-0.777c-0.996-0.346-1.948-0.784-2.855-1.321
	c-0.621-0.369-0.874-0.837-0.729-1.545c0.374-1.84,0.942-3.606,1.983-5.192c0.241-0.367,0.516-0.707,0.807-1.033
	c0.293-0.326,0.646-0.589,1-0.866c-1.768-1.595-3.24-3.419-4.404-5.488c-0.717-1.275-1.292-2.611-1.729-4.008
	c-0.038-0.123-0.039-0.259-0.241-0.267c-1.705-0.087-3.401-0.273-5.093-0.504c-2.492-0.336-4.951-0.832-7.339-1.634
	c-0.345-0.115-0.688-0.237-1.027-0.371c-0.969-0.386-1.307-1.535-0.477-2.326c1.466-1.401,2.87-2.865,4.242-4.36
	c2.736-2.975,5.338-6.064,7.793-9.277c1.899-2.485,3.733-5.016,5.379-7.679c1.911-3.089,3.606-6.286,4.771-9.74
	c0.565-1.676,0.917-3.397,0.913-5.174c0-0.583-0.045-1.165-0.166-1.74c-0.139-0.653,0.24-1.266,0.893-1.498
	c0.665-0.235,1.319-0.065,1.562,0.46c0.407,0.89,0.987,1.664,1.57,2.434c1.734,2.293,3.85,4.186,6.19,5.835
	c3.344,2.355,6.994,4.125,10.789,5.607c4.417,1.726,8.935,3.128,13.54,4.251c2.451,0.597,4.923,1.101,7.426,1.43
	c0.908,0.118,1.178,0.843,1.086,1.513c-0.039,0.296-0.164,0.56-0.37,0.777c-2.927,3.103-6.054,5.987-9.434,8.592
	c-0.379,0.291-0.761,0.578-1.148,0.861c-0.113,0.083-0.142,0.158-0.097,0.304c0.563,1.789,0.881,3.617,0.955,5.493
	c0.092,2.328-0.253,4.592-0.927,6.813c-0.682,2.252-1.722,4.327-3.083,6.244c-0.088,0.124-0.109,0.18,0.043,0.288
	c2.181,1.552,3.486,3.658,3.942,6.289c0.087,0.505,0.094,1.021,0.017,1.53c-0.096,0.628-0.472,1-1.096,1.115
	c-1.462,0.268-2.939,0.345-4.422,0.326C55.735,63.263,55.57,63.267,55.33,63.267z"/>
<path fill="#CC9933" d="M67.439,25.316c-0.43,0.457-0.831,0.925-1.275,1.344c-0.852,0.799-1.721,1.581-2.598,2.352
	c-2.544,2.238-5.243,4.273-8.086,6.117c-3.083,1.995-6.309,3.726-9.69,5.16c-4.029,1.708-8.193,2.963-12.506,3.729
	c-1.973,0.351-3.959,0.595-5.957,0.744c-1.844,0.138-3.696,0.182-5.544,0.124c-3.394-0.104-6.76-0.476-10.085-1.184
	c-0.927-0.198-1.853-0.401-2.763-0.654c-0.031-0.118,0.063-0.157,0.116-0.21c3.912-4.013,7.529-8.275,10.935-12.725
	c2.142-2.798,4.173-5.67,5.963-8.707c1.748-2.964,3.327-6.01,4.346-9.315c0.355-1.149,0.62-2.317,0.8-3.558
	c0.311,0.342,0.593,0.654,0.876,0.962c2.146,2.317,4.625,4.218,7.308,5.86c3.846,2.355,7.967,4.119,12.196,5.649
	c3.703,1.34,7.468,2.466,11.304,3.359C64.32,24.724,65.873,25.041,67.439,25.316z"/>
<path fill="#E2C9A2" d="M40.875,59.965c-0.037,0.005-0.072,0.009-0.108,0.014c-0.207,0.053-0.421-0.019-0.628,0.041
	c-1.647,0.023-3.257-0.217-4.851-0.625c-1.221-0.311-2.374-0.768-3.511-1.302c-1.907-0.898-3.546-2.151-5.017-3.636
	c-0.432-0.438-0.812-0.927-1.229-1.379c-0.163-0.175-0.134-0.302,0.011-0.464c0.642-0.716,1.213-1.485,1.711-2.306
	c0.527-0.871,0.978-1.775,1.099-2.803c0.032-0.269,0.232-0.206,0.37-0.22c1.05-0.089,2.094-0.22,3.136-0.367
	c1.85-0.263,3.679-0.622,5.498-1.048c0.252-0.061,0.51-0.109,0.754-0.193c0.235-0.081,0.297-0.003,0.33,0.223
	c0.105,0.714,0.643,1.223,1.353,1.317c0.6,0.078,1.092-0.125,1.46-0.595c0.387-0.495,0.416-1.048,0.202-1.629
	c-0.027-0.075-0.159-0.15-0.049-0.233c0.091-0.069,0.178,0.032,0.248,0.082c0.212,0.152,0.419,0.312,0.619,0.48
	c0.358,0.302,0.726,0.293,1.019-0.028c0.263-0.291,0.225-0.656-0.1-0.963c-0.036-0.035-0.073-0.067-0.118-0.107
	c0.891-0.342,1.766-0.674,2.639-1.011c2.56-0.994,5.024-2.188,7.418-3.527c0.845-0.475,1.675-0.975,2.513-1.462
	c0.164,0.001,0.202,0.132,0.237,0.25c0.189,0.621,0.235,1.256,0.095,1.889c-0.085,0.387-0.326,0.672-0.678,0.858
	c-0.223,0.044-0.401-0.089-0.593-0.16c-1.048-0.389-2.099-0.452-3.136,0.017c-0.883,0.399-1.503,1.076-1.922,1.938
	c-0.195,0.406,0.101,0.859,0.562,0.906c0.103,0.009,0.21-0.028,0.309,0.025c0.218,0.352,0.272,0.762,0.385,1.147
	c0.282,0.948,0.559,1.897,0.83,2.848c0.036,0.127,0.095,0.257,0.035,0.395c-0.139,0.074-0.237-0.041-0.347-0.083
	c-0.254-0.098-0.473-0.04-0.668,0.13c-0.199,0.173-0.171,0.383-0.088,0.604c0.294,0.784,0.612,1.556,0.918,2.335
	c0.146,0.373,0.116,0.479-0.204,0.718c-0.748,0.559-1.601,0.852-2.518,0.969c-0.57,0.072-1.141,0.098-1.717,0.025
	c-0.464-0.06-0.745,0.331-0.586,0.771c0.027,0.08,0.072,0.152,0.094,0.234c0.038,0.229-0.078,0.423-0.173,0.611
	c-0.151,0.302-0.242,0.639-0.496,0.881c-0.807-0.006-1.529-0.283-2.212-0.686c-0.152-0.091-0.293-0.2-0.445-0.291
	c-0.203-0.122-0.419-0.137-0.63-0.036c-0.46,0.221-0.502,0.657-0.089,0.965c0.649,0.484,1.35,0.87,2.134,1.094
	c0.139,0.041,0.285,0.07,0.406,0.158c0.073,0.141-0.045,0.215-0.112,0.295c-0.822,0.989-1.79,1.805-2.93,2.407
	C41.71,59.648,41.323,59.88,40.875,59.965z"/>
<path fill="#E2C9A2" d="M40.875,59.965c0.502-0.274,1.034-0.488,1.528-0.783c1.062-0.635,1.976-1.432,2.741-2.404
	c0.098-0.105,0.216-0.049,0.324-0.03c1.326,0.219,2.579,0.026,3.753-0.638c0.128-0.072,0.258-0.141,0.361-0.248
	c0.208-0.216,0.242-0.507,0.083-0.745c-0.164-0.249-0.424-0.333-0.713-0.209c-0.281,0.118-0.533,0.288-0.818,0.396
	c-0.616,0.237-1.253,0.322-1.908,0.288c-0.094-0.006-0.191-0.005-0.256-0.092c0.23-0.468,0.505-0.915,0.633-1.428
	c0.462,0.158,0.938,0.248,1.428,0.223c1.498-0.077,2.917-0.388,4.133-1.334c0.232-0.181,0.438-0.388,0.633-0.607
	c0.227-0.254,0.28-0.526,0.141-0.863c-0.382-0.928-0.737-1.864-1.111-2.795c-0.042-0.104-0.112-0.206-0.079-0.327
	c-0.42-1.47-0.841-2.939-1.261-4.407c0.124-0.277,0.305-0.521,0.46-0.781c0.045-0.075,0.107-0.188,0.21-0.157
	c0.123,0.033,0.098,0.169,0.104,0.268c0.008,0.138,0.015,0.273,0.052,0.405c0.167,0.586,0.55,0.967,1.14,1.093
	c0.609,0.126,1.144-0.05,1.529-0.565c0.391-0.522,0.409-1.078,0.115-1.652c-0.015-0.028-0.036-0.053-0.049-0.08
	c-0.057-0.115-0.237-0.23-0.14-0.348c0.125-0.147,0.289,0.001,0.423,0.064c0.256,0.121,0.507,0.248,0.751,0.392
	c0.302,0.177,0.523,0.141,0.724-0.098c0.197-0.236,0.204-0.541,0.02-0.78c-0.085-0.109-0.195-0.188-0.312-0.26
	c-0.104-0.064-0.233-0.107-0.255-0.255c0.875-0.647,0.762-1.543,0.598-2.441c-0.034-0.188-0.038-0.402-0.213-0.537
	c0.823-0.53,1.645-1.062,2.489-1.604c0.255,0.853,0.41,1.719,0.521,2.591c0.356,2.783,0.021,5.497-0.872,8.146
	c-0.831,2.466-2.115,4.669-3.869,6.595c-2.857,3.138-6.386,5.059-10.553,5.808C42.542,59.907,41.715,60.036,40.875,59.965z"/>
<path fill="#C01F4A" d="M32.388,65.5c-2.321,0-4.385-0.298-6.365-1.075c-0.339-0.133-0.668-0.295-1.002-0.443
	c-0.104-0.044-0.171-0.097-0.133-0.235c0.375-1.367,0.82-2.7,1.782-3.791c0.028-0.03,0.057-0.062,0.085-0.094
	c0.451-0.496,0.898-0.713,1.628-0.408c1.147,0.479,2.247,1.055,3.384,1.549c1.854,0.804,3.791,1.273,5.798,1.486
	c0.978,0.104,1.957,0.141,2.938,0.152c0.77,0.008,1.543-0.058,2.313-0.1c0.185-0.011,0.309,0.017,0.301,0.234
	c-0.006,0.205,0.191,0.451-0.151,0.578c-1.431,0.527-2.889,0.967-4.371,1.322c-1.464,0.349-2.942,0.615-4.441,0.744
	C33.5,65.475,32.842,65.534,32.388,65.5z"/>
<path fill="#C01F4A" d="M50.697,60.14c0.646-0.463,1.256-0.865,1.816-1.335c1.015-0.852,2.03-1.705,3.042-2.562
	c0.115-0.098,0.187-0.147,0.342-0.039c1.425,0.998,2.397,2.306,2.789,4.021c0.052,0.23,0.034,0.295-0.224,0.321
	c-1.846,0.194-3.688,0.077-5.53-0.064c-0.562-0.045-1.122-0.098-1.684-0.134C51.054,60.336,50.921,60.225,50.697,60.14z"/>
<path fill="#C01F4A" d="M46.012,64.153c0.584,0.452,1.02,0.962,1.42,1.504c0.73,0.995,1.207,2.088,1.316,3.327
	c0.014,0.146,0.09,0.359-0.052,0.43c-0.122,0.062-0.241-0.129-0.345-0.219c-1.073-0.936-1.718-2.129-2.071-3.495
	C46.153,65.211,46.044,64.718,46.012,64.153z"/>
<path fill="#C01F4A" d="M49.06,62.518c2.067,0.507,3.766,1.519,4.871,3.483C51.682,65.619,50.228,64.264,49.06,62.518z"/>
<path fill="#757B93" d="M40.139,60.021c0.204-0.11,0.417-0.044,0.628-0.042C40.562,60.062,40.348,60.004,40.139,60.021z"/>
<path fill="#030303" d="M55.26,41.205c0.158,0.103,0.318,0.196,0.471,0.304c0.343,0.245,0.415,0.652,0.181,0.989
	c-0.232,0.335-0.536,0.379-0.922,0.14c-0.335-0.209-0.68-0.396-1.138-0.548c0.641,0.8,0.711,1.562,0.092,2.316
	c-0.37,0.448-1.116,0.615-1.698,0.41c-0.702-0.245-1.037-0.796-1.071-1.77c-0.327,0.239-0.36,0.688-0.687,0.913
	c-0.327,0.065-0.63,0.04-0.84-0.258c-0.204-0.288-0.146-0.574,0.01-0.877c0.947-1.85,3.031-2.632,4.999-1.865
	C54.858,41.04,55.059,41.124,55.26,41.205z"/>
<path fill="#030303" d="M51.748,48.365c0.358,0.743,0.618,1.526,0.936,2.286c0.113,0.268,0.199,0.549,0.326,0.811
	c0.186,0.389,0.074,0.699-0.197,0.996c-0.741,0.812-1.663,1.313-2.71,1.602c-0.985,0.273-1.987,0.356-3.006,0.257
	c-0.202-0.019-0.349-0.125-0.495-0.244c-0.025-0.045-0.056-0.087-0.078-0.134c-0.131-0.264-0.129-0.533,0.029-0.775
	c0.145-0.221,0.392-0.22,0.623-0.199c0.699,0.066,1.394,0.046,2.083-0.092c0.799-0.158,1.532-0.459,2.176-0.971
	c0.182-0.143,0.201-0.27,0.116-0.475c-0.31-0.751-0.604-1.508-0.902-2.263c-0.187-0.471-0.165-0.703,0.07-0.883
	C51.024,48.051,51.389,48.082,51.748,48.365z"/>
<path fill="#030303" d="M45.97,55.5c1.008,0.098,1.952-0.085,2.824-0.615c0.391-0.237,0.747-0.159,0.953,0.178
	c0.217,0.355,0.117,0.757-0.269,0.993c-0.807,0.494-1.678,0.775-2.627,0.843c-0.58,0.042-1.141-0.047-1.708-0.121
	c-0.847-0.231-1.65-0.558-2.367-1.077c-0.05-0.037-0.104-0.069-0.154-0.105c-0.401-0.296-0.492-0.584-0.283-0.889
	c0.249-0.361,0.731-0.446,1.102-0.173C44.197,55.093,45.039,55.408,45.97,55.5z"/>
<g>
	<path fill="#CC9933" d="M77.811,62.518V44.091h-3.177v-5.474h3.177v-0.929c0-2.884,0.88-6.061,2.981-8.015
		c1.906-1.76,4.448-2.396,6.647-2.396c1.613,0,2.883,0.244,3.91,0.488l-0.293,5.719c-0.635-0.195-1.417-0.342-2.395-0.342
		c-2.443,0-3.47,1.906-3.47,4.252v1.222h4.79v5.474H85.24v18.426L77.811,62.518L77.811,62.518z"/>
	<path fill="#CC9933" d="M97.26,35.489c-2.493,0-4.105-1.76-4.105-3.959c0-2.248,1.662-3.959,4.203-3.959s4.105,1.711,4.154,3.959
		c0,2.199-1.613,3.959-4.203,3.959H97.26z M93.594,62.518v-23.9h7.429v23.899L93.594,62.518L93.594,62.518z"/>
	<path fill="#CC9933" d="M106.983,27.815h7.429v34.701h-7.429V27.815z"/>
	<path fill="#CC9933" d="M124.037,35.489c-2.493,0-4.105-1.76-4.105-3.959c0-2.248,1.662-3.959,4.203-3.959s4.105,1.711,4.154,3.959
		c0,2.199-1.613,3.959-4.203,3.959H124.037z M120.372,62.518v-23.9h7.429v23.899L120.372,62.518L120.372,62.518z"/>
	<path fill="#CC9933" d="M133.76,46.633c0-3.128-0.098-5.768-0.195-8.016h6.451l0.342,3.323h0.099c1.76-2.492,4.498-3.86,7.967-3.86
		c5.229,0,9.923,4.545,9.923,12.169c0,8.7-5.523,12.806-10.851,12.806c-2.886,0-5.134-1.174-6.207-2.737h-0.099v11.875h-7.43V46.633
		L133.76,46.633z M141.189,52.253c0,0.587,0.049,1.075,0.146,1.564c0.488,2.004,2.199,3.519,4.351,3.519
		c3.225,0,5.131-2.688,5.131-6.744c0-3.812-1.709-6.696-5.033-6.696c-2.102,0-3.959,1.564-4.447,3.764
		c-0.098,0.391-0.146,0.88-0.146,1.319V52.253L141.189,52.253z"/>
	<path fill="#CC9933" d="M166.646,35.489c-2.492,0-4.105-1.76-4.105-3.959c0-2.248,1.662-3.959,4.203-3.959
		c2.543,0,4.105,1.711,4.154,3.959c0,2.199-1.611,3.959-4.203,3.959H166.646z M162.982,62.518v-23.9h7.428v23.899L162.982,62.518
		L162.982,62.518z"/>
	<path fill="#CC9933" d="M174.465,58.216l7.525-9.384c1.369-1.564,2.445-2.786,3.812-4.203v-0.098h-10.508v-5.914h19.552v4.496
		l-7.187,9.042c-1.32,1.516-2.541,3.03-3.91,4.35v0.098h11.485v5.914h-20.771L174.465,58.216L174.465,58.216z"/>
	<path fill="#CC9933" d="M204.672,52.89c0.246,3.128,3.275,4.594,6.746,4.594c2.541,0,4.594-0.342,6.598-1.026l0.978,5.034
		c-2.443,1.026-5.425,1.515-8.65,1.515c-8.112,0-12.756-4.691-12.756-12.218c0-6.061,3.812-12.756,12.072-12.756
		c7.723,0,10.653,6.011,10.653,11.925c0,1.271-0.146,2.395-0.244,2.981L204.672,52.89z M213.422,47.807
		c0-1.76-0.783-4.839-4.154-4.839c-3.178,0-4.449,2.884-4.645,4.839H213.422z"/>
	<path fill="#CC9933" d="M224.756,46.241c0-2.98-0.098-5.474-0.195-7.624h6.451l0.342,3.323h0.146
		c0.979-1.563,3.373-3.86,7.381-3.86c4.887,0,8.553,3.274,8.553,10.312v14.125h-7.43V49.272c0-3.079-1.074-5.181-3.762-5.181
		c-2.053,0-3.275,1.418-3.812,2.786c-0.195,0.488-0.244,1.173-0.244,1.857v13.782h-7.43V46.241z"/>
</g>
</svg>
