<?xml version="1.0" encoding="utf-8"?>
<!-- Generator: Adobe Illustrator 16.0.0, SVG Export Plug-In . SVG Version: 6.00 Build 0)  -->
<!DOCTYPE svg PUBLIC "-//W3C//DTD SVG 1.1//EN" "http://www.w3.org/Graphics/SVG/1.1/DTD/svg11.dtd">
<svg version="1.1" xmlns="http://www.w3.org/2000/svg" xmlns:xlink="http://www.w3.org/1999/xlink" x="0px" y="0px" width="144px"
	 height="40px" viewBox="0 0 144 40" enable-background="new 0 0 144 40" xml:space="preserve">
<g id="Layer_2" display="none">
	<rect x="-9" y="-8.333" display="inline" fill="#540050" width="170.667" height="80.333"/>
</g>
<g id="Layer_1">
	<g id="Layer_1_1_" display="none">
		<g display="inline">
			<g>
				<g>
					<path fill="#78A440" d="M29.041,18.729c-1.387,0.793-2.973,1.189-4.459,1.189c-0.991,0-1.982-0.198-2.775-0.495
						c-1.486,1.388-3.072,2.279-3.964,2.774c1.189,1.883,3.072,3.271,5.352,3.863c0.693,0.196,1.387,0.299,2.18,0.299
						c1.585,0,3.072-0.396,4.36-1.09c0.198-0.694,0.297-1.487,0.297-2.279C30.131,21.504,29.833,20.018,29.041,18.729z"/>
				</g>
				<g>
					<path fill="#78A440" d="M27.554,7.631c-0.099,0-0.198-0.099-0.297-0.099l0,0C27.356,7.532,27.455,7.631,27.554,7.631z"/>
					<path fill="#78A440" d="M27.257,7.631C26.96,9.415,26.266,11,25.176,12.19c0.099,0.297,0.099,0.693,0.099,0.991
						c0,2.081-1.09,3.865-2.378,5.351c0.396,0,0.792,0.1,1.189,0.1c1.883,0,3.865-0.595,5.451-1.883
						c1.883-1.486,2.973-3.567,3.369-5.648c-1.387-1.784-3.27-2.973-5.351-3.468C27.455,7.631,27.356,7.532,27.257,7.631
						L27.257,7.631z"/>
				</g>
				<g>
					<path fill="#78A440" d="M25.869,6.144c0-2.378-0.892-4.559-2.378-6.144h-0.099c-2.081,0-3.964,0.793-5.649,2.279
						c1.585,1.685,2.18,3.865,2.18,6.045c0,0.198,0,0.297,0,0.496c0.396-0.099,0.694-0.099,1.09-0.099h0.099
						c1.387,0,2.774,0.694,3.567,1.982C25.374,9.315,25.869,7.829,25.869,6.144z"/>
				</g>
				<g>
					<path fill="#78A440" d="M9.915,0.198c-0.099,0-0.297,0-0.297,0c-1.487,1.586-2.28,3.667-2.28,5.946v0.099
						c0.099,0,0.198,0,0.297,0c2.478,0,4.658,0.991,6.243,2.478c1.288,0.099,2.676,0.793,3.369,2.18
						c0.396-0.793,0.991-1.288,1.586-1.585c0-0.099,0-0.198,0-0.297c0-2.478-0.991-4.856-2.973-6.64
						C14.077,0.892,11.996,0.198,9.915,0.198z"/>
				</g>
				<g>
					<path fill="#78A440" d="M12.689,8.82L12.689,8.82L12.689,8.82z"/>
					<path fill="#78A440" d="M12.392,8.82c-1.289-0.793-2.874-1.189-4.459-1.189c-0.496,0-0.991,0-1.586,0.099
						c-2.279,0.396-4.261,1.784-5.549,3.469c0.396,2.081,1.486,4.162,3.27,5.549c1.289-1.784,3.171-2.973,5.153-3.27
						c0-0.099,0-0.198,0-0.297C9.221,10.703,10.707,9.216,12.392,8.82z"/>
				</g>
				<g>
					<path fill="#78A440" d="M4.662,18.729c-0.694,1.288-0.991,2.774-0.991,4.164c0,0.791,0.099,1.687,0.297,2.377
						c1.289,0.693,2.775,1.09,4.261,1.09c0.694,0,1.388-0.099,2.18-0.297c-0.198-0.793-0.297-1.586-0.297-2.379
						c0-1.883,0.594-3.667,1.685-5.25c-0.991-1.091-1.883-2.378-2.279-3.865C7.437,15.36,5.653,16.748,4.662,18.729z"/>
				</g>
				<g>
					<polygon fill="#78A440" points="12.095,26.955 12.095,26.955 11.996,27.055 11.996,27.055 					"/>
					<path fill="#78A440" d="M16.852,31.514c1.982-0.893,3.667-2.478,4.559-4.559c-2.279-0.893-3.964-2.676-4.757-4.757
						c-0.694-0.396-2.577-1.388-4.261-2.974c-0.595,1.29-0.991,2.676-0.991,4.063c0,1.189,0.198,2.378,0.793,3.566
						C13.185,29.135,14.968,30.721,16.852,31.514z"/>
					<polygon fill="#78A440" points="12.194,26.955 12.095,26.955 12.095,26.955 					"/>
				</g>
				<g>
					<path fill="#78A440" d="M45.392,20.811l-7.73,9.117h6.739c0.694,0,1.288,0.596,1.288,1.289s-0.594,1.287-1.288,1.287h-9.712
						c-0.693,0-1.288-0.693-1.288-1.387c0-0.297,0.099-0.693,0.396-0.991l7.729-9.117h-6.739c-0.693,0-1.288-0.595-1.288-1.288
						c0-0.693,0.595-1.288,1.288-1.288h9.514c0.892,0,1.486,0.693,1.486,1.486C45.788,20.217,45.689,20.514,45.392,20.811z"/>
					<path fill="#78A440" d="M60.95,26.459c0,0,0,0-10.108,0c0.198,2.182,1.883,3.766,4.261,3.766c1.685,0,3.072-0.689,4.261-1.783
						c0.198-0.194,0.496-0.297,0.793-0.297c0.396,0,0.792,0.197,0.991,0.496c0.198,0.197,0.297,0.494,0.297,0.793
						c0,0.396-0.198,0.791-0.496,1.09C59.563,32.009,57.284,33,55.004,33c-4.162,0-7.432-3.369-7.432-7.434
						c0-4.161,3.27-7.436,7.333-7.436s7.135,3.176,7.135,7.436C62.041,26.062,61.545,26.459,60.95,26.459z M54.905,20.712
						c-2.18,0-3.667,1.388-3.964,3.567c4.955,0,8.027,0,8.027,0C58.671,22.198,57.085,20.712,54.905,20.712z"/>
					<path fill="#78A440" d="M94.148,32.802c-0.896,0-1.586-0.694-1.586-1.585v-0.793c-0.895,1.585-2.676,2.477-4.658,2.477
						c-4.161,0-7.035-3.17-7.035-7.432s2.874-7.433,7.035-7.433c2.082,0,3.865,0.991,4.658,2.478V12.09
						c0-0.892,0.69-1.585,1.586-1.585c0.893,0,1.586,0.694,1.586,1.585v19.127C95.734,32.107,95.041,32.802,94.148,32.802z
						 M88.302,20.811c-2.577,0-4.261,2.082-4.261,4.658s1.684,4.657,4.261,4.657s4.261-1.981,4.261-4.657
						S90.879,20.811,88.302,20.811z"/>
					<path fill="#78A440" d="M111.986,26.459c0,0,0,0-10.107,0c0.197,2.182,1.883,3.766,4.262,3.766c1.688,0,3.071-0.689,4.26-1.783
						c0.199-0.194,0.496-0.297,0.793-0.297c0.396,0,0.793,0.197,1.094,0.496c0.195,0.197,0.298,0.494,0.298,0.793
						c0,0.396-0.196,0.791-0.495,1.09c-1.389,1.485-3.668,2.479-5.943,2.479c-4.162,0-7.437-3.369-7.437-7.437
						c0-4.158,3.271-7.433,7.334-7.433s7.136,3.173,7.136,7.433C113.176,26.062,112.581,26.459,111.986,26.459z M105.941,20.712
						c-2.18,0-3.666,1.388-3.965,3.567c4.955,0,8.023,0,8.023,0C109.707,22.198,108.121,20.712,105.941,20.712z"/>
					<path fill="#78A440" d="M121.104,32.9c-1.586,0-3.666-0.495-5.252-1.387c-0.496-0.301-0.793-0.793-0.793-1.189
						c0-0.198,0.104-0.297,0.104-0.495c0.193-0.495,0.594-0.793,0.986-0.793c0.199,0,0.496,0.099,0.693,0.198
						c1.189,0.689,2.577,1.188,3.965,1.188c1.586,0,3.369-0.496,3.369-1.688c0-0.988-0.893-1.286-4.162-2.479
						c-2.775-0.988-4.162-2.181-4.162-4.16c0-2.381,2.379-3.967,5.549-3.967c2.185,0,3.568,0.496,4.856,1.09
						c0.595,0.298,0.892,0.694,0.892,1.189c0,0.197,0,0.298-0.1,0.496c-0.197,0.492-0.693,0.892-1.188,0.892
						c-0.198,0-0.299,0-0.495-0.099c-1.189-0.598-2.38-0.895-3.767-0.895c-1.688,0-2.774,0.396-2.774,1.387
						c0,1.093,0.893,1.289,3.271,2.082c2.973,0.99,5.055,1.98,5.055,4.459C127.248,30.919,125.066,32.9,121.104,32.9z"/>
					<path fill="#78A440" d="M141.814,32.802c-0.396,0-0.895-0.198-1.188-0.495l-5.351-6.145l-1.586,1.288v3.767
						c0,0.891-0.693,1.585-1.586,1.585c-0.896,0-1.586-0.694-1.586-1.585V12.09c0-0.892,0.69-1.585,1.586-1.585
						c0.893,0,1.586,0.694,1.586,1.585v11.596l6.735-5.25c0.3-0.198,0.597-0.298,0.896-0.298c0.494,0,0.892,0.199,1.188,0.595
						c0.198,0.298,0.396,0.595,0.396,0.892c0,0.496-0.198,0.896-0.596,1.188l-4.562,3.567L143,30.425
						c0.199,0.298,0.396,0.595,0.396,0.99C143.203,32.107,142.607,32.703,141.814,32.802z"/>
					<path fill="#78A440" d="M71.554,17.938c-3.667,0-6.739,2.873-6.739,6.738v6.641c0,0.895,0.693,1.584,1.585,1.584
						s1.585-0.689,1.585-1.584v-6.541c0-2.181,1.189-3.965,3.568-3.965c2.28,0,3.567,1.784,3.567,3.965v6.541
						c0,0.895,0.694,1.584,1.586,1.584c0.894,0,1.586-0.689,1.586-1.584v-6.641C78.293,20.811,75.221,17.938,71.554,17.938z"/>
				</g>
			</g>
			<g display="none">
				<path display="inline" fill="#78A440" d="M139.734,12.09c0-0.892,0.689-1.585,1.586-1.585c0.892,0,1.584,0.694,1.584,1.585
					c0,0.892-0.692,1.586-1.584,1.586C140.428,13.676,139.734,12.982,139.734,12.09z M142.509,12.09
					c0-0.693-0.495-1.189-1.188-1.189c-0.69,0-1.188,0.496-1.188,1.189c0,0.694,0.495,1.289,1.188,1.289
					C142.014,13.378,142.509,12.784,142.509,12.09z M140.626,12.784v-1.387c0-0.099,0.099-0.198,0.198-0.198h0.595
					c0.396,0,0.595,0.198,0.595,0.496c0,0.198-0.1,0.396-0.297,0.496l0.197,0.495v0.099c0,0.099-0.1,0.198-0.197,0.198
					c-0.1,0-0.199-0.099-0.199-0.099l-0.297-0.496h-0.297l0,0v0.396c0,0.099-0.1,0.198-0.199,0.198
					C140.725,12.982,140.626,12.883,140.626,12.784z M141.617,11.793c0-0.099-0.1-0.198-0.297-0.198h-0.299l0,0v0.297l0,0h0.299
					C141.518,11.991,141.617,11.892,141.617,11.793z"/>
			</g>
		</g>
	</g>
	<g display="none">
		<g display="inline">
			<path fill="#77A240" d="M19.097,27.88l-0.678-6.755h-0.531l0.749,7.333L19.097,27.88z M16.919,30.879l1.422-1.781l-0.814-7.973
				H16.31l-0.812,7.973L16.919,30.879z M15.268,28.458l0.747-7.333h-0.529l-0.679,6.755L15.268,28.458z"/>
			<path fill="#77A240" d="M16.015,20.945c0.05,0,0.1,0.021,0.134,0.06l0,0c0.005,0.005,0.01,0.013,0.015,0.019l0,0
				c0.032-0.049,0.086-0.078,0.148-0.078l0,0h1.217c0.092,0,0.169,0.068,0.179,0.162l0,0l0.812,7.974
				c0.005,0.046-0.009,0.097-0.038,0.131l0,0l-1.422,1.78c-0.033,0.045-0.085,0.066-0.14,0.066l0,0
				c-0.055,0-0.107-0.021-0.141-0.066l0,0l-1.421-1.781c-0.029-0.036-0.042-0.085-0.038-0.131l0,0l0.047-0.473
				c-0.015,0.013-0.032,0.021-0.049,0.021l0,0c-0.071,0.021-0.146-0.004-0.19-0.061l0,0l-0.46-0.577
				c-0.03-0.036-0.044-0.083-0.04-0.13l0,0l0.68-6.758c0.008-0.09,0.085-0.16,0.178-0.16l0,0h0.529V20.945z M15.816,21.305h-0.168
				l-0.656,6.521l0.142,0.176L15.816,21.305L15.816,21.305z M18.155,29.042l-0.79-7.737h-0.892l-0.79,7.737l1.236,1.549
				L18.155,29.042L18.155,29.042z M15.392,28.357l-0.125,0.101L15.392,28.357L15.392,28.357z M17.059,30.766l-0.14,0.113
				L17.059,30.766L17.059,30.766z M18.419,20.945c0.092,0,0.169,0.07,0.179,0.16l0,0l0.678,6.758
				c0.005,0.046-0.009,0.093-0.039,0.129l0,0l-0.459,0.578c-0.046,0.058-0.122,0.08-0.191,0.06l0,0
				c-0.071-0.021-0.121-0.081-0.128-0.153l0,0l-0.749-7.334c-0.005-0.05,0.012-0.1,0.045-0.138l0,0
				c0.034-0.037,0.082-0.06,0.132-0.06l0,0H18.419L18.419,20.945z M18.256,21.307h-0.169l0.683,6.695l0.142-0.176L18.256,21.307
				L18.256,21.307z"/>
		</g>
		<g display="inline">
			<path fill="#77A240" stroke="#FFFFFF" stroke-width="0.25" stroke-miterlimit="10" d="M19.246,27.732l-0.679-6.756h-0.53
				l0.748,7.334L19.246,27.732z M17.067,30.73l1.422-1.78l-0.814-7.974h-1.216l-0.813,7.974L17.067,30.73z M15.415,28.311
				l0.748-7.334h-0.53l-0.679,6.756L15.415,28.311z"/>
		</g>
		<g display="inline">
			<path fill="#77A240" d="M14.915,3.34l0.679,6.756h0.531l-0.749-7.333L14.915,3.34z M17.094,0.342l-1.423,1.782l0.813,7.972h1.217
				l0.813-7.972L17.094,0.342z M18.745,2.763l-0.747,7.333h0.529l0.679-6.756L18.745,2.763z"/>
			<path fill="#77A240" d="M17.998,10.275c-0.05,0-0.1-0.021-0.134-0.059l0,0c-0.005-0.005-0.01-0.012-0.014-0.019l0,0
				c-0.033,0.048-0.088,0.078-0.148,0.078l0,0h-1.217c-0.092,0-0.169-0.07-0.178-0.162l0,0l-0.813-7.971
				c-0.005-0.046,0.008-0.094,0.037-0.13l0,0l1.423-1.782c0.035-0.042,0.086-0.067,0.141-0.067l0,0c0.053,0,0.106,0.024,0.139,0.067
				l0,0l1.422,1.782c0.03,0.038,0.042,0.083,0.038,0.13l0,0l-0.047,0.472c0.014-0.01,0.031-0.018,0.049-0.024l0,0
				c0.071-0.021,0.146,0.003,0.191,0.06l0,0l0.459,0.578c0.03,0.037,0.044,0.083,0.04,0.13l0,0l-0.68,6.755
				c-0.009,0.092-0.085,0.162-0.178,0.162l0,0H17.998L17.998,10.275z M18.196,9.917h0.168l0.655-6.522l-0.141-0.178L18.196,9.917
				L18.196,9.917z M15.857,2.179l0.789,7.738h0.893l0.79-7.738L17.094,0.63L15.857,2.179L15.857,2.179z M18.62,2.862l0.125-0.099
				L18.62,2.862L18.62,2.862z M16.953,0.453l0.141-0.111L16.953,0.453L16.953,0.453z M15.593,10.275
				c-0.092,0-0.169-0.07-0.179-0.162l0,0l-0.679-6.755c-0.004-0.047,0.009-0.093,0.038-0.13l0,0l0.461-0.578
				c0.045-0.057,0.121-0.081,0.19-0.06l0,0c0.07,0.021,0.121,0.082,0.128,0.154l0,0l0.749,7.334c0.005,0.05-0.012,0.101-0.046,0.139
				l0,0c-0.034,0.039-0.082,0.059-0.132,0.059l0,0L15.593,10.275L15.593,10.275z M15.756,9.916h0.169l-0.684-6.698L15.1,3.395
				L15.756,9.916L15.756,9.916z"/>
		</g>
		<g display="inline">
			<path fill="#77A240" d="M24.208,5.482l-4.297,5.257l0.374,0.375l4.657-5.715L24.208,5.482z M27.869,4.901l-2.266,0.256
				l-5.062,6.211l0.861,0.861l6.212-5.062L27.869,4.901z M27.326,7.781l-5.714,4.657l0.375,0.375l5.256-4.297L27.326,7.781z"/>
			<path fill="#77A240" d="M21.859,12.94l-0.374-0.375c-0.036-0.036-0.055-0.085-0.053-0.136l0,0
				c0.002-0.008,0.002-0.015,0.003-0.023l0,0c-0.056,0.011-0.117-0.006-0.159-0.049l0,0l-0.861-0.861
				c-0.064-0.064-0.07-0.169-0.012-0.24l0,0l5.063-6.211c0.028-0.037,0.073-0.06,0.119-0.065l0,0l2.265-0.256
				c0.055-0.005,0.109,0.014,0.148,0.051l0,0c0.037,0.039,0.057,0.092,0.051,0.147l0,0l-0.255,2.266
				c-0.005,0.047-0.028,0.089-0.065,0.119l0,0L27.36,7.605c0.017,0.003,0.036,0.01,0.051,0.02l0,0
				c0.065,0.034,0.101,0.104,0.092,0.177l0,0l-0.082,0.734c-0.007,0.045-0.03,0.088-0.066,0.119l0,0L22.1,12.953
				c-0.034,0.026-0.074,0.04-0.113,0.04l0,0C21.94,12.993,21.895,12.975,21.859,12.94L21.859,12.94z M21.879,12.453l0.119,0.119
				l5.074-4.148l0.025-0.226L21.879,12.453L21.879,12.453z M25.697,5.327l-4.914,6.029l0.632,0.632l6.029-4.913l0.221-1.97
				L25.697,5.327L25.697,5.327z M20.159,11.241l-0.375-0.375c-0.064-0.066-0.069-0.17-0.011-0.241l0,0l4.297-5.256
				c0.028-0.037,0.073-0.059,0.118-0.066l0,0l0.734-0.083c0.073-0.008,0.143,0.028,0.178,0.093l0,0
				c0.036,0.064,0.028,0.143-0.019,0.199l0,0l-4.657,5.715c-0.031,0.039-0.08,0.063-0.129,0.067l0,0c-0.004,0-0.006,0-0.01,0l0,0
				C20.239,11.293,20.193,11.274,20.159,11.241L20.159,11.241z M20.153,10.726l0.119,0.12l4.253-5.219L24.3,5.651L20.153,10.726
				L20.153,10.726z"/>
		</g>
		<g display="inline">
			<path fill="#77A240" d="M29.267,13.568l-6.756,0.68v0.528l7.334-0.747L29.267,13.568z M32.265,15.747l-1.782-1.421l-7.972,0.813
				v1.217l7.972,0.813L32.265,15.747z M29.845,17.399l-7.334-0.748v0.53l6.756,0.678L29.845,17.399z"/>
			<path fill="#77A240" d="M29.249,18.039l-6.756-0.679c-0.093-0.01-0.162-0.087-0.162-0.179l0,0v-0.53
				c0-0.052,0.022-0.1,0.06-0.133l0,0c0.006-0.005,0.011-0.009,0.018-0.015l0,0c-0.046-0.033-0.077-0.087-0.077-0.148l0,0v-1.217
				c0-0.092,0.069-0.17,0.161-0.18l0,0l7.972-0.812c0.047-0.005,0.094,0.008,0.131,0.037l0,0l1.781,1.423l-0.111,0.139l0.111-0.139
				c0.043,0.034,0.068,0.085,0.068,0.139l0,0c0,0.055-0.024,0.107-0.068,0.14l0,0l-1.781,1.421c-0.038,0.03-0.083,0.044-0.131,0.04
				l0,0L29.993,17.3c0.011,0.013,0.019,0.031,0.024,0.048l0,0c0.02,0.07-0.003,0.146-0.061,0.19l0,0L29.378,18
				c-0.031,0.026-0.071,0.041-0.112,0.041l0,0C29.261,18.041,29.256,18.039,29.249,18.039L29.249,18.039z M22.69,17.019l6.521,0.654
				l0.178-0.141l-6.699-0.683V17.019L22.69,17.019z M29.845,17.398l0.011-0.113L29.845,17.398L29.845,17.398z M22.69,15.301v0.893
				l7.738,0.79l1.55-1.237l-1.55-1.235L22.69,15.301L22.69,15.301z M22.391,14.91c-0.038-0.033-0.06-0.082-0.06-0.133l0,0v-0.528
				c0-0.092,0.069-0.169,0.162-0.179l0,0l6.756-0.679c0.046-0.004,0.093,0.008,0.129,0.038l0,0l0.578,0.46
				c0.058,0.045,0.081,0.121,0.061,0.191l0,0c-0.021,0.07-0.082,0.12-0.154,0.127l0,0l-7.335,0.749
				c-0.005,0-0.012,0.001-0.018,0.001l0,0C22.467,14.957,22.423,14.94,22.391,14.91L22.391,14.91z M22.69,14.41v0.168l6.699-0.682
				l-0.178-0.142L22.69,14.41L22.69,14.41z M29.156,13.709l0.111-0.141L29.156,13.709L29.156,13.709z"/>
		</g>
		<g display="inline">
			<path fill="#77A240" d="M27.124,22.863l-5.256-4.298l-0.375,0.375l5.714,4.656L27.124,22.863z M27.705,26.523l-0.256-2.271
				l-6.211-5.062l-0.861,0.861l5.062,6.212L27.705,26.523z M24.825,25.98l-4.657-5.715l-0.374,0.375l4.297,5.256L24.825,25.98z"/>
			<path fill="#77A240" d="M27.685,26.701l-2.265-0.256c-0.048-0.006-0.09-0.029-0.12-0.063l0,0l-0.299-0.368
				c-0.003,0.021-0.009,0.035-0.019,0.055l0,0c-0.035,0.062-0.105,0.103-0.177,0.094l0,0l-0.734-0.084
				c-0.045-0.003-0.09-0.027-0.119-0.062l0,0l-4.297-5.259c-0.059-0.071-0.053-0.177,0.012-0.241l0,0l0.375-0.375
				c0.035-0.035,0.085-0.054,0.135-0.052l0,0c0.008,0,0.016,0.002,0.023,0.004l0,0c-0.009-0.058,0.006-0.116,0.051-0.161l0,0
				l0.859-0.86c0.066-0.064,0.169-0.068,0.241-0.014l0,0l6.213,5.063c0.036,0.029,0.06,0.07,0.063,0.12l0,0l0.257,2.265
				l-0.179,0.021l0.02-0.182l-0.02,0.182l0.179-0.021c0.004,0.059-0.015,0.109-0.052,0.146l0,0c-0.033,0.031-0.08,0.054-0.127,0.054
				l0,0C27.698,26.703,27.691,26.703,27.685,26.701L27.685,26.701z M20.618,20.069l4.914,6.029l1.97,0.221l-0.223-1.969
				l-6.028-4.913L20.618,20.069L20.618,20.069z M24.825,25.98l0.089-0.072L24.825,25.98l0.018-0.162L24.825,25.98L24.825,25.98z
				 M20.036,20.65l4.148,5.076l0.224,0.022l-4.254-5.22L20.036,20.65L20.036,20.65z M27.094,23.736l-5.714-4.657
				c-0.04-0.031-0.063-0.079-0.066-0.129l0,0c-0.002-0.052,0.017-0.102,0.054-0.137l0,0l0.373-0.374
				c0.065-0.066,0.171-0.069,0.242-0.013l0,0l5.256,4.299l-0.114,0.142l-0.179,0.019l0.179-0.019l0.114-0.142
				c0.037,0.028,0.059,0.071,0.065,0.117l0,0l0.083,0.735c0.009,0.069-0.028,0.141-0.092,0.176l0,0
				c-0.027,0.017-0.057,0.022-0.085,0.022l0,0C27.167,23.775,27.126,23.764,27.094,23.736L27.094,23.736z M21.76,18.926l5.221,4.254
				l-0.026-0.224l-5.075-4.148L21.76,18.926L21.76,18.926z"/>
		</g>
		<g display="inline">
			<path fill="#77A240" d="M9.743,25.779l4.298-5.26l-0.375-0.375L9.01,25.861L9.743,25.779z M6.083,26.359l2.265-0.256l5.062-6.213
				l-0.861-0.859l-6.212,5.062L6.083,26.359z M6.626,23.48l5.715-4.658l-0.375-0.375l-5.257,4.298L6.626,23.48z"/>
			<path fill="#77A240" d="M5.956,26.486c-0.038-0.041-0.057-0.094-0.05-0.149l0,0l0.255-2.264c0.006-0.046,0.029-0.091,0.064-0.12
				l0,0l0.368-0.299c-0.019-0.002-0.036-0.01-0.052-0.021l0,0c-0.063-0.033-0.1-0.104-0.092-0.178l0,0l0.082-0.73
				c0.005-0.049,0.029-0.094,0.065-0.119l0,0l5.258-4.296c0.07-0.058,0.174-0.054,0.24,0.011l0,0l0.375,0.377
				c0.036,0.035,0.054,0.085,0.052,0.136l0,0c0,0.007-0.002,0.015-0.002,0.021l0,0c0.056-0.009,0.116,0.008,0.158,0.05l0,0
				l0.861,0.861c0.064,0.064,0.071,0.168,0.013,0.24l0,0l-0.02,0.024c0.032-0.037,0.078-0.06,0.126-0.062l0,0
				c0.051-0.002,0.101,0.017,0.135,0.052l0,0l0.376,0.375c0.064,0.064,0.069,0.168,0.011,0.238l0,0l-4.296,5.263
				c-0.029,0.031-0.073,0.06-0.119,0.062l0,0L9.028,26.04c-0.072,0.007-0.141-0.028-0.177-0.093l0,0
				c-0.035-0.064-0.028-0.141,0.019-0.199l0,0l-0.381,0.469c-0.03,0.037-0.073,0.061-0.12,0.064l0,0l-2.267,0.256l-0.019-0.178
				l0.019,0.178c-0.006,0.001-0.012,0.001-0.019,0.001l0,0C6.037,26.538,5.991,26.52,5.956,26.486L5.956,26.486z M6.509,24.188
				l-0.222,1.971l1.969-0.225l4.913-6.024l-0.631-0.634L6.509,24.188L6.509,24.188z M9.426,25.633l0.226-0.023l4.147-5.072
				l-0.119-0.12L9.426,25.633L9.426,25.633z M6.699,23.566L6.626,23.48L6.699,23.566L6.699,23.566z M6.88,22.838l-0.025,0.223
				l5.219-4.25l-0.119-0.12L6.88,22.838L6.88,22.838z"/>
		</g>
		<g display="inline">
			<path fill="#77A240" d="M4.687,17.692l6.755-0.679v-0.53l-7.333,0.748L4.687,17.692z M1.687,15.514l1.784,1.421l7.971-0.812
				l0.001-1.217l-7.972-0.812L1.687,15.514z M4.108,13.862l7.333,0.748v-0.53l-6.756-0.679L4.108,13.862z"/>
			<path fill="#77A240" d="M4.575,17.832l-0.579-0.46c-0.057-0.046-0.081-0.122-0.06-0.191l0,0c0.02-0.069,0.081-0.121,0.154-0.129
				l0,0l7.334-0.746c0.051-0.005,0.101,0.011,0.138,0.044l0,0c0.038,0.034,0.06,0.083,0.06,0.134l0,0v0.53
				c0,0.091-0.071,0.168-0.162,0.178l0,0l-6.755,0.68c-0.007,0.001-0.012,0.001-0.019,0.001l0,0
				C4.646,17.872,4.607,17.857,4.575,17.832L4.575,17.832z M4.687,17.692l0.111-0.14L4.687,17.692L4.687,17.692z M4.564,17.365
				l0.177,0.142l6.522-0.656v-0.17L4.564,17.365L4.564,17.365z M3.359,17.076l-1.784-1.422c-0.042-0.034-0.067-0.086-0.067-0.14l0,0
				c0-0.054,0.024-0.106,0.067-0.141l0,0l1.784-1.422c0.036-0.028,0.083-0.042,0.129-0.037l0,0l0.471,0.048
				c-0.01-0.015-0.018-0.031-0.023-0.049l0,0c-0.021-0.071,0.003-0.146,0.06-0.191l0,0l0.578-0.46
				c0.036-0.03,0.083-0.042,0.129-0.039l0,0l6.757,0.68c0.092,0.008,0.162,0.087,0.162,0.178l0,0v0.529c0,0.05-0.022,0.1-0.06,0.134
				l0,0c-0.005,0.004-0.011,0.01-0.018,0.013l0,0c0.047,0.034,0.078,0.088,0.078,0.149l0,0v1.217c0,0.09-0.07,0.168-0.162,0.177l0,0
				l-7.972,0.813c-0.007,0.002-0.013,0.002-0.018,0.002l0,0C3.43,17.115,3.39,17.101,3.359,17.076L3.359,17.076z M3.524,16.75
				l7.738-0.791v-0.892l-7.738-0.79l-1.55,1.236L3.524,16.75L3.524,16.75z M11.263,14.412v-0.169l-6.522-0.656l-0.177,0.141
				L11.263,14.412L11.263,14.412z"/>
		</g>
		<g display="inline">
			<path fill="#77A240" d="M6.828,8.397l5.256,4.298l0.376-0.375L6.746,7.664L6.828,8.397z M6.248,4.738l0.255,2.264l6.211,5.063
				l0.861-0.86L8.514,4.993L6.248,4.738z M9.128,5.28l4.657,5.715l0.374-0.375L9.862,5.363L9.128,5.28z"/>
			<path fill="#77A240" d="M11.97,12.834L6.714,8.537l0.114-0.139l0.179-0.021l-0.179,0.02l-0.114,0.14
				c-0.036-0.03-0.06-0.073-0.064-0.119l0,0L6.567,7.683C6.559,7.612,6.595,7.542,6.659,7.506l0,0
				C6.724,7.47,6.803,7.478,6.858,7.524l0,0l5.715,4.657c0.04,0.032,0.064,0.08,0.067,0.13l0,0c0.002,0.05-0.017,0.101-0.053,0.136
				l0,0l-0.375,0.375c-0.035,0.036-0.08,0.052-0.127,0.052l0,0C12.044,12.874,12.004,12.861,11.97,12.834L11.97,12.834z
				 M12.073,12.453l0.12-0.119l-5.22-4.253l0.025,0.224L12.073,12.453L12.073,12.453z M12.602,12.204L6.39,7.141
				C6.353,7.111,6.331,7.07,6.324,7.023l0,0L6.069,4.757C6.063,4.703,6.083,4.649,6.121,4.61l0,0
				C6.16,4.572,6.214,4.553,6.269,4.559l0,0l2.265,0.255C8.581,4.819,8.623,4.842,8.652,4.88l0,0l0.299,0.367
				C8.956,5.228,8.96,5.211,8.97,5.195l0,0c0.035-0.064,0.105-0.101,0.177-0.093l0,0l0.734,0.083C9.927,5.191,9.97,5.214,10,5.249
				l0,0l4.297,5.258c0.058,0.072,0.053,0.175-0.013,0.24l0,0l-0.375,0.376c-0.035,0.034-0.084,0.054-0.135,0.051l0,0
				c-0.009,0-0.016-0.001-0.024-0.003l0,0c0.011,0.056-0.006,0.117-0.049,0.16l0,0l-0.86,0.86c-0.035,0.036-0.082,0.053-0.128,0.053
				l0,0C12.675,12.245,12.635,12.231,12.602,12.204L12.602,12.204z M6.673,6.91l6.03,4.914l0.631-0.631L8.42,5.163L6.451,4.941
				L6.673,6.91L6.673,6.91z M13.798,10.728l0.119-0.119L9.77,5.534L9.543,5.508L13.798,10.728L13.798,10.728z M9.109,5.44
				l0.019-0.16L9.109,5.44L9.109,5.44z M6.228,4.917l0.021-0.178L6.228,4.917L6.228,4.917z"/>
		</g>
		<g display="inline">
			<circle fill="#77A240" cx="16.999" cy="15.116" r="10.01"/>
			<path fill="#77A240" d="M6.742,15.115c0-5.665,4.592-10.255,10.257-10.255l0,0c5.663,0,10.256,4.591,10.256,10.255l0,0
				c0,5.662-4.591,10.255-10.256,10.255l0,0C11.333,25.37,6.742,20.777,6.742,15.115L6.742,15.115z M10.093,8.211
				c-1.767,1.769-2.86,4.206-2.86,6.904l0,0c0,2.698,1.093,5.137,2.86,6.902l0,0c1.77,1.769,4.209,2.857,6.906,2.857l0,0
				c2.697,0,5.137-1.092,6.905-2.857l0,0c1.767-1.769,2.859-4.208,2.859-6.902l0,0c0-2.698-1.092-5.136-2.859-6.904l0,0
				c-1.768-1.767-4.208-2.86-6.905-2.86l0,0C14.3,5.351,11.861,6.444,10.093,8.211L10.093,8.211z"/>
		</g>
		<g display="inline">
			<path fill="#77A240" stroke="#FFFFFF" stroke-width="0.25" stroke-miterlimit="10" d="M14.915,3.34l0.679,6.756h0.531
				l-0.749-7.333L14.915,3.34z M17.094,0.342l-1.423,1.782l0.813,7.972h1.217l0.813-7.972L17.094,0.342z M18.745,2.763l-0.747,7.333
				h0.529l0.679-6.756L18.745,2.763z"/>
		</g>
		<g display="inline">
			<path fill="#77A240" stroke="#FFFFFF" stroke-width="0.25" stroke-miterlimit="10" d="M24.356,5.334l-4.297,5.258l0.375,0.373
				l4.657-5.715L24.356,5.334z M28.017,4.754L25.751,5.01l-5.062,6.211l0.86,0.861l6.213-5.062L28.017,4.754z M27.474,7.634
				l-5.715,4.656l0.376,0.375l5.256-4.297L27.474,7.634z"/>
		</g>
		<g display="inline">
			<path fill="#77A240" stroke="#FFFFFF" stroke-width="0.25" stroke-miterlimit="10" d="M29.415,13.42l-6.757,0.68v0.528
				l7.334-0.747L29.415,13.42z M32.413,15.6l-1.783-1.421l-7.972,0.813v1.217l7.972,0.812L32.413,15.6z M29.992,17.252l-7.334-0.749
				v0.532l6.757,0.677L29.992,17.252z"/>
		</g>
		<g display="inline">
			<path fill="#77A240" stroke="#FFFFFF" stroke-width="0.25" stroke-miterlimit="10" d="M27.272,22.716l-5.257-4.298l-0.375,0.375
				l5.715,4.656L27.272,22.716z M27.853,26.376l-0.254-2.269l-6.213-5.062l-0.86,0.861l5.062,6.212L27.853,26.376z M24.973,25.833
				l-4.657-5.716l-0.374,0.376l4.296,5.256L24.973,25.833z"/>
		</g>
		<g display="inline">
			<path fill="#77A240" stroke="#FFFFFF" stroke-width="0.25" stroke-miterlimit="10" d="M9.892,25.631l4.297-5.257l-0.375-0.375
				l-4.658,5.716L9.892,25.631z M6.231,26.211l2.265-0.255l5.063-6.214l-0.862-0.858l-6.211,5.062L6.231,26.211z M6.774,23.333
				l5.714-4.658L12.114,18.3l-5.256,4.298L6.774,23.333z"/>
		</g>
		<g display="inline">
			<path fill="#77A240" stroke="#FFFFFF" stroke-width="0.25" stroke-miterlimit="10" d="M4.834,17.545l6.755-0.679v-0.529
				l-7.333,0.748L4.834,17.545z M1.836,15.366l1.782,1.422l7.971-0.813v-1.217l-7.971-0.813L1.836,15.366z M4.256,13.714
				l7.333,0.748v-0.53l-6.755-0.679L4.256,13.714z"/>
		</g>
		<g display="inline">
			<path fill="#77A240" stroke="#FFFFFF" stroke-width="0.25" stroke-miterlimit="10" d="M6.828,8.397l5.256,4.298l0.376-0.375
				L6.746,7.664L6.828,8.397z M6.248,4.738l0.255,2.264l6.211,5.063l0.861-0.86L8.514,4.993L6.248,4.738z M9.128,5.28l4.657,5.715
				l0.374-0.375L9.862,5.363L9.128,5.28z"/>
		</g>
		<g display="inline">
			<circle fill="#77A240" stroke="#FFFFFF" stroke-width="0.25" stroke-miterlimit="10" cx="17.201" cy="14.913" r="10.011"/>
		</g>
		<path display="inline" fill="#FFFFFF" d="M15.169,19.297c0,0.836,0.676,1.518,1.528,1.518c0.856,0,1.544-0.682,1.544-1.518V15.53
			h0.626c0.642,0,1.118-0.513,1.118-1.108c0-0.63-0.476-1.109-1.118-1.109H18.16v-0.36v-0.392c0.033-0.222,0.146-0.325,0.361-0.325
			h0.493c0.708,0,0.971-0.324,0.971-0.87c0-0.493-0.344-0.885-1.085-0.885h-1.117c-1.513,0-2.614,1.346-2.614,2.813
			c-0.707,0-1.201,0.444-1.201,1.109c0,0.631,0.494,1.126,1.201,1.126V19.297z"/>
	</g>
	<g>
		<path fill="#FFFFFF" d="M107.411,21.732L99.23,31.38h7.131c0.734,0,1.365,0.629,1.365,1.364c0,0.73-0.631,1.359-1.365,1.359
			H96.082c-0.732,0-1.363-0.73-1.363-1.469c0-0.312,0.105-0.729,0.42-1.05l8.182-9.649h-7.133c-0.731,0-1.359-0.629-1.359-1.36
			c0-0.734,0.628-1.363,1.359-1.363h10.07c0.943,0,1.572,0.734,1.572,1.573C107.83,21.104,107.727,21.419,107.411,21.732z"/>
		<path fill="#FFFFFF" d="M124.131,27.593c0,0,0,0-10.697,0c0.209,2.31,1.991,3.986,4.508,3.986c1.783,0,3.252-0.734,4.516-1.888
			c0.211-0.209,0.521-0.315,0.839-0.315c0.42,0,0.839,0.209,1.149,0.524c0.215,0.211,0.314,0.521,0.314,0.841
			c0,0.419-0.21,0.838-0.523,1.153c-1.469,1.569-3.883,2.623-6.295,2.623c-4.403,0-7.863-3.566-7.863-7.869
			c0-4.405,3.46-7.866,7.765-7.866c4.302,0,7.556,3.356,7.556,7.866C125.391,27.173,124.76,27.593,124.131,27.593z M117.73,21.511
			c-2.31,0-3.879,1.468-4.196,3.775c5.245,0,8.498,0,8.498,0C121.719,23.082,120.039,21.511,117.73,21.511z"/>
		<path fill="#FFFFFF" d="M34.061,19.427h0.945V18.31c0-1.164,0.157-2.088,0.472-2.774s0.848-1.185,1.6-1.5
			c0.75-0.313,1.78-0.47,3.089-0.47c2.316,0,3.474,0.532,3.474,1.594c0,0.346-0.122,0.642-0.363,0.886
			c-0.244,0.246-0.529,0.368-0.859,0.368c-0.155,0-0.421-0.026-0.799-0.081c-0.377-0.055-0.697-0.082-0.959-0.082
			c-0.717,0-1.177,0.197-1.381,0.593c-0.203,0.396-0.305,0.96-0.305,1.697v0.886h0.974c1.512,0,2.268,0.426,2.268,1.28
			c0,0.607-0.202,0.995-0.603,1.159c-0.402,0.163-0.957,0.243-1.665,0.243h-0.974v9.854c0,0.736-0.187,1.298-0.56,1.686
			c-0.372,0.388-0.855,0.578-1.446,0.578c-0.562,0-1.03-0.19-1.403-0.578c-0.372-0.388-0.559-0.945-0.559-1.686v-9.854h-1.09
			c-0.591,0-1.047-0.123-1.367-0.375c-0.32-0.248-0.48-0.572-0.48-0.977C32.069,19.871,32.733,19.427,34.061,19.427z"/>
		<path fill="#FFFFFF" d="M46.663,17.368c-0.552,0-1.025-0.157-1.417-0.477c-0.393-0.318-0.589-0.768-0.589-1.35
			c0-0.526,0.201-0.961,0.603-1.301c0.402-0.341,0.871-0.512,1.403-0.512c0.514,0,0.969,0.155,1.366,0.464s0.596,0.759,0.596,1.349
			c0,0.573-0.194,1.02-0.582,1.343C47.657,17.208,47.196,17.368,46.663,17.368z M48.625,21.212v10.752
			c0,0.744-0.189,1.31-0.566,1.69c-0.378,0.383-0.858,0.572-1.439,0.572c-0.582,0-1.054-0.196-1.417-0.588
			c-0.364-0.393-0.545-0.947-0.545-1.679V21.32c0-0.736,0.181-1.29,0.545-1.662c0.364-0.373,0.835-0.56,1.417-0.56
			c0.581,0,1.061,0.187,1.439,0.56C48.437,20.03,48.625,20.549,48.625,21.212z"/>
		<path fill="#FFFFFF" d="M52.725,31.964V15.829c0-0.746,0.176-1.309,0.53-1.69c0.354-0.382,0.831-0.573,1.431-0.573
			s1.085,0.188,1.454,0.565c0.368,0.377,0.552,0.943,0.552,1.698v16.135c0,0.754-0.187,1.319-0.56,1.697
			c-0.373,0.377-0.855,0.565-1.446,0.565c-0.581,0-1.054-0.196-1.417-0.588C52.906,33.25,52.725,32.691,52.725,31.964z"/>
		<path fill="#FFFFFF" d="M62.798,17.368c-0.552,0-1.026-0.157-1.418-0.477c-0.393-0.318-0.588-0.768-0.588-1.35
			c0-0.526,0.201-0.961,0.603-1.301c0.402-0.341,0.87-0.512,1.403-0.512c0.513,0,0.968,0.155,1.366,0.464
			c0.397,0.309,0.596,0.759,0.596,1.349c0,0.573-0.194,1.02-0.581,1.343C63.792,17.208,63.33,17.368,62.798,17.368z M64.76,21.212
			v10.752c0,0.744-0.189,1.31-0.566,1.69c-0.378,0.383-0.857,0.572-1.439,0.572s-1.053-0.196-1.417-0.588
			c-0.363-0.393-0.545-0.947-0.545-1.679V21.32c0-0.736,0.182-1.29,0.545-1.662c0.364-0.373,0.835-0.56,1.417-0.56
			s1.061,0.187,1.439,0.56C64.571,20.03,64.76,20.549,64.76,21.212z"/>
		<path fill="#FFFFFF" d="M72.521,21.186v0.448c0.746-0.862,1.521-1.497,2.326-1.901c0.805-0.404,1.715-0.605,2.729-0.605
			c1.221,0,2.345,0.295,3.371,0.886c1.024,0.591,1.84,1.453,2.438,2.589c0.596,1.136,0.896,2.479,0.896,4.03
			c0,1.146-0.173,2.195-0.517,3.155c-0.348,0.959-0.815,1.766-1.418,2.411c-0.604,0.647-1.312,1.146-2.134,1.499
			c-0.813,0.35-1.694,0.521-2.637,0.521c-1.138,0-2.088-0.213-2.854-0.641c-0.771-0.428-1.508-1.055-2.203-1.881v5.587
			c0,1.638-0.633,2.454-1.902,2.454c-0.746,0-1.24-0.211-1.482-0.633c-0.244-0.424-0.364-1.039-0.364-1.85V21.212
			c0-0.709,0.165-1.237,0.495-1.588c0.327-0.351,0.779-0.525,1.351-0.525c0.561,0,1.02,0.18,1.374,0.539
			C72.344,19.996,72.521,20.512,72.521,21.186z M80.299,26.594c0-0.979-0.158-1.822-0.48-2.527c-0.314-0.705-0.762-1.24-1.325-1.621
			c-0.567-0.377-1.194-0.562-1.886-0.562c-1.096,0-2.02,0.404-2.771,1.214c-0.75,0.811-1.125,1.997-1.125,3.569
			c0,1.479,0.371,2.632,1.119,3.455c0.746,0.817,1.671,1.229,2.776,1.229c0.658,0,1.27-0.18,1.83-0.539
			c0.562-0.354,1.014-0.896,1.354-1.611C80.128,28.48,80.299,27.611,80.299,26.594z"/>
		<path fill="#FFFFFF" d="M89.473,17.368c-0.555,0-1.022-0.157-1.42-0.477c-0.392-0.318-0.588-0.768-0.588-1.35
			c0-0.526,0.201-0.961,0.604-1.301c0.402-0.341,0.871-0.512,1.404-0.512c0.512,0,0.967,0.155,1.364,0.464
			c0.396,0.309,0.597,0.759,0.597,1.349c0,0.573-0.19,1.02-0.58,1.343C90.464,17.208,90.003,17.368,89.473,17.368z M91.434,21.212
			v10.752c0,0.744-0.188,1.31-0.563,1.69c-0.382,0.383-0.858,0.572-1.438,0.572c-0.582,0-1.057-0.196-1.42-0.588
			c-0.361-0.393-0.545-0.947-0.545-1.679V21.32c0-0.736,0.184-1.29,0.545-1.662c0.363-0.373,0.838-0.56,1.42-0.56
			c0.578,0,1.062,0.187,1.438,0.56C91.244,20.03,91.434,20.549,91.434,21.212z"/>
		<path fill="#FFFFFF" d="M135.296,18.744c-3.882,0-7.135,3.041-7.135,7.132v7.028c0,0.943,0.735,1.679,1.68,1.679
			c0.945,0,1.677-0.733,1.677-1.679v-6.922c0-2.312,1.26-4.197,3.778-4.197c2.414,0,3.776,1.889,3.776,4.197v6.922
			c0,0.943,0.729,1.679,1.677,1.679c0.944,0,1.681-0.733,1.681-1.679v-7.028C142.43,21.785,139.176,18.744,135.296,18.744z"/>
	</g>
	<path fill="none" d="M7.856,11.565c0,0-3.053,13.599,8.233,15.636c0,0,11.841,0.83,10.361-14.896
		C26.451,12.305,15.997,4.256,7.856,11.565z"/>
	<path fill="#FFFFFF" d="M26.82,12.27l-0.016-0.16l-0.128-0.099c-0.205-0.158-5.111-3.883-10.907-3.883
		c-3.079,0-5.824,1.064-8.161,3.162L7.52,11.369l-0.026,0.115c-0.032,0.142-0.406,1.886-0.386,4.19
		c0.339,0.03,0.595,0.174,0.762,0.392c-0.06-2.131,0.235-3.857,0.323-4.306c2.177-1.919,4.726-2.892,7.576-2.892
		c5.04,0,9.523,3.058,10.327,3.636c0.117,1.309,0.123,2.517,0.056,3.656c0.109-0.033,0.215-0.07,0.347-0.07
		c0.149,0,0.272,0.038,0.392,0.08C26.96,14.953,26.952,13.666,26.82,12.27z"/>
	<path fill="#FFFFFF" d="M25.589,19.665c-0.463,1.661-1.18,3.076-2.195,4.19c-2.518,2.768-5.994,2.981-7,2.981
		c-0.127,0-0.214-0.003-0.239-0.003c-0.005,0-0.007,0-0.006,0c-2.849-0.516-5-1.841-6.395-3.939
		c-0.609-0.918-1.027-1.927-1.318-2.947C8.307,19.998,8.166,20.036,8,20.036c-0.127,0-0.228-0.037-0.333-0.068
		c0.313,1.146,0.775,2.287,1.469,3.333c1.512,2.277,3.829,3.713,6.929,4.27c0,0,0.118,0.008,0.33,0.008
		c1.082,0,4.824-0.23,7.548-3.225c1.141-1.254,1.927-2.853,2.416-4.729c-0.139,0.062-0.299,0.098-0.483,0.098
		C25.766,19.723,25.682,19.688,25.589,19.665z"/>
	<path fill="none" d="M25.804,16.652c0.641-1.816,3.15-1.835,3.331,0.278c0.163,1.906-2.026,2.963-3.608,2.96"/>
	<path fill="#FFFFFF" d="M25.531,20.262c-0.001,0-0.003,0-0.004,0v-0.74c0.001,0,0.003,0,0.005,0c1,0,2.116-0.455,2.715-1.105
		c0.39-0.427,0.565-0.914,0.519-1.455c-0.062-0.716-0.45-1.188-1.039-1.265c-0.553-0.068-1.278,0.238-1.574,1.08l-0.698-0.246
		c0.371-1.054,1.347-1.699,2.366-1.567c0.741,0.094,1.572,0.653,1.682,1.938c0.063,0.743-0.182,1.44-0.711,2.016
		C27.937,19.846,26.538,20.262,25.531,20.262z"/>
	<path fill="none" d="M7.949,16.468c-0.446-1.87-2.79-0.509-2.775,1.017c0.014,1.426,1.766,2.979,3.238,2.5"/>
	<path fill="#FFFFFF" d="M7.844,20.441c-0.556,0-1.136-0.198-1.667-0.579c-0.827-0.595-1.366-1.524-1.375-2.371
		c-0.012-1.17,1.041-2.172,1.991-2.29c0.747-0.091,1.317,0.35,1.515,1.181l-0.72,0.172c-0.163-0.684-0.569-0.635-0.705-0.618
		c-0.609,0.074-1.348,0.803-1.34,1.545c0.005,0.62,0.425,1.318,1.067,1.781c0.559,0.4,1.173,0.535,1.686,0.369l0.229,0.703
		C8.307,20.407,8.078,20.441,7.844,20.441z"/>
	<g>
		<circle fill="#FFFFFF" cx="12.829" cy="16.907" r="1.272"/>
	</g>
	<g>
		<circle fill="#FFFFFF" cx="20.785" cy="17" r="1.272"/>
	</g>
	<path fill="none" d="M12.667,21.464c0.74,2.312,2.321,2.937,3.701,2.868c1.763-0.088,2.775-0.646,3.793-2.868"/>
	<path fill="#FFFFFF" d="M16.165,24.707c-1.814,0-3.211-1.129-3.851-3.132c-0.062-0.193,0.045-0.401,0.24-0.462
		c0.195-0.062,0.403,0.044,0.466,0.238c0.761,2.377,2.418,2.664,3.329,2.609c1.567-0.077,2.487-0.494,3.476-2.652
		c0.085-0.186,0.305-0.266,0.491-0.182c0.185,0.085,0.268,0.305,0.182,0.49c-1.009,2.201-2.046,2.98-4.111,3.085
		C16.312,24.705,16.238,24.707,16.165,24.707z"/>
	<g>
		<path fill="#FFFFFF" d="M10.995,6.767c0,0,6.687-3.643,13.6,0.09c0,0-5.88-2.939-6.754-4.37
			C17.84,2.487,17.204,3.997,10.995,6.767z"/>
	</g>
	<path fill="#FFFFFF" d="M6.931,15.265c1.332,0.491,3.334-1.117,4.048-2.239c0.732-1.148,1.115-3.426,1.133-4.765
		c-0.096,3.572,3.854,5.027,6.739,5.7c0.003-0.653-0.587-1.271-0.639-1.994c2.38,1.807,6.971,1.251,8.332,4.223
		c0.854-0.719,1.336-3.587,1.295-4.717c-0.057-1.558-0.561-3.45-1.295-4.811c-1.463-2.712-4.688-4.623-7.66-5.068
		c-6.31-0.946-7.42,0.627-9.733,2.385c-2.208,1.678-4.625,4.903-3.423,9.62c0.17,0.667,0.821,1.258,1.294,1.666"/>
	<polygon fill="#FFFFFF" points="16.553,28.68 12.481,27.107 12.481,32.193 16.553,30.623 20.993,32.011 20.9,27.291 	"/>
	<rect x="16.183" y="28.959" fill="none" width="1.203" height="1.294"/>
</g>
</svg>
